<?xml version="1.0" standalone="no"?>
<!DOCTYPE svg PUBLIC "-//W3C//DTD SVG 20010904//EN"
 "http://www.w3.org/TR/2001/REC-SVG-20010904/DTD/svg10.dtd">
<svg version="1.0" xmlns="http://www.w3.org/2000/svg"
 width="1010.000000pt" height="1010.000000pt" viewBox="0 0 1010.000000 1010.000000"
 preserveAspectRatio="xMidYMid meet">
<metadata>
Created by potrace 1.14, written by Peter Selinger 2001-2017
</metadata>
<g transform="translate(0.000000,1010.000000) scale(0.100000,-0.100000)"
fill="#000000" stroke="none">
<path d="M5015 7690 c-4 -6 -10 -8 -15 -5 -5 3 -11 1 -15 -5 -3 -5 -11 -10
-16 -10 -6 0 -8 4 -5 8 2 4 -6 8 -19 8 -19 0 -22 -3 -14 -17 15 -29 10 -30
-16 -4 -25 26 -56 36 -33 11 7 -8 16 -12 19 -10 3 2 6 -3 6 -11 0 -10 -4 -12
-12 -5 -6 5 -23 7 -38 4 -15 -2 -27 0 -27 5 0 6 9 8 21 6 17 -4 19 -2 9 11
-10 10 -16 11 -26 3 -7 -6 -19 -7 -26 -3 -8 5 -8 1 2 -11 14 -17 14 -18 -9 -5
-22 11 -23 11 -17 -6 6 -18 5 -18 -7 -2 -8 10 -17 15 -20 11 -4 -3 -7 0 -7 7
0 7 -3 10 -7 7 -3 -4 1 -15 10 -25 14 -15 15 -19 2 -19 -8 0 -13 3 -11 6 5 9
-16 26 -36 29 -10 2 -18 -2 -18 -8 0 -14 -27 -13 -34 3 -3 6 -4 -1 -1 -18 2
-16 2 -24 -1 -17 -3 6 -11 9 -17 5 -7 -4 -8 0 -4 11 4 10 3 15 -4 11 -5 -4
-17 -1 -26 7 -12 9 -15 9 -9 1 4 -7 4 -13 -1 -14 -4 0 -15 -2 -23 -4 -55 -14
-74 -14 -89 -3 -13 10 -14 10 -3 -2 18 -21 15 -35 -5 -19 -11 10 -14 10 -9 2
4 -7 3 -13 -3 -13 -5 0 -11 6 -14 13 -3 9 -8 8 -22 -3 -21 -17 -24 -17 -36 2
-7 11 -9 11 -9 -1 0 -11 -3 -11 -17 0 -16 13 -17 12 -4 -3 7 -10 18 -15 24
-11 6 3 7 1 3 -6 -6 -9 -13 -9 -30 3 -13 8 -28 11 -36 6 -7 -4 -23 -7 -36 -5
-13 1 -21 -2 -18 -6 6 -11 -25 -7 -46 6 -13 8 -13 7 -1 -8 8 -10 12 -19 10
-20 -2 -1 -13 -9 -23 -17 -17 -13 -18 -13 -11 -1 6 11 4 13 -8 8 -9 -3 -19 -2
-23 4 -3 6 -12 3 -21 -8 -8 -10 -12 -12 -8 -5 4 8 -1 12 -14 12 -12 0 -21 -5
-21 -11 0 -5 -5 -7 -10 -4 -6 4 -8 10 -6 14 3 4 -1 8 -9 8 -10 0 -11 -5 -4
-18 14 -27 11 -35 -6 -13 -8 10 -15 15 -15 9 0 -5 -5 -3 -10 5 -6 9 -10 10
-10 3 0 -6 -9 -10 -20 -8 -11 2 -19 -1 -17 -8 1 -7 -4 -11 -12 -9 -8 2 -11 -3
-8 -10 3 -10 -4 -13 -27 -13 -17 1 -35 -4 -39 -9 -5 -7 -7 -5 -4 4 2 8 14 15
27 15 13 0 25 7 27 15 4 12 3 12 -5 1 -7 -9 -11 -10 -17 -2 -5 9 -10 9 -21 0
-10 -8 -18 -9 -27 0 -10 8 -14 7 -14 -4 0 -8 4 -12 9 -9 4 3 8 0 8 -6 0 -8
-18 -11 -60 -7 -52 4 -58 3 -43 -9 15 -10 16 -15 5 -26 -11 -11 -12 -10 -6 7
4 11 4 17 -1 13 -4 -4 -16 -3 -25 2 -13 7 -21 5 -30 -4 -6 -8 -22 -13 -34 -10
-17 3 -25 -1 -29 -16 -3 -11 -11 -20 -19 -20 -10 0 -9 3 2 10 11 8 9 9 -12 6
-15 -2 -28 0 -30 5 -2 5 -9 0 -16 -12 -11 -17 -11 -20 0 -14 10 6 10 5 1 -5
-17 -19 -37 -2 -21 18 12 16 11 16 -7 1 -11 -9 -29 -15 -41 -14 -11 1 -21 -4
-21 -11 0 -7 5 -10 11 -7 6 3 5 0 -1 -7 -11 -12 -15 -11 -27 6 -10 13 -14 14
-13 4 2 -8 6 -20 9 -26 4 -6 1 -11 -7 -11 -8 0 -12 4 -9 9 3 4 0 8 -6 8 -6 0
-8 5 -4 13 6 9 5 9 -7 0 -12 -10 -18 -10 -29 0 -10 9 -11 9 -5 -1 4 -9 0 -15
-14 -19 -12 -3 -21 -10 -21 -16 0 -6 -3 -7 -6 -4 -14 14 -42 -13 -38 -35 4
-21 4 -21 -4 -3 -5 11 -7 26 -5 33 3 6 0 12 -7 12 -6 0 -8 -5 -5 -11 4 -6 0
-9 -11 -7 -11 2 -18 -2 -16 -9 1 -8 -8 -13 -20 -13 -19 0 -20 2 -8 11 13 9 13
10 0 6 -8 -2 -14 -11 -12 -20 1 -8 -3 -19 -9 -23 -7 -4 -9 -3 -5 4 3 6 2 13
-3 16 -14 9 -21 -20 -8 -35 10 -11 9 -11 -5 0 -9 7 -16 18 -14 24 1 7 1 8 -2
4 -2 -4 -11 -2 -20 5 -15 11 -15 11 -4 -4 9 -11 10 -18 2 -23 -6 -3 -7 -11 -4
-17 4 -6 2 -8 -4 -4 -5 3 -13 0 -15 -6 -4 -10 -6 -10 -6 0 -1 7 -5 11 -10 7
-5 -3 -12 -1 -15 4 -3 4 4 8 16 7 12 0 23 6 25 14 3 9 1 11 -4 5 -4 -6 -17
-11 -28 -11 -12 0 -20 -6 -19 -15 1 -8 -8 -16 -18 -16 -17 -2 -18 0 -6 15 12
16 11 16 -7 1 -11 -9 -28 -15 -38 -14 -15 3 -16 1 -6 -11 13 -16 23 -19 15 -5
-5 8 15 8 34 1 3 -1 9 -2 13 -1 5 1 6 -3 2 -9 -5 -8 -11 -7 -21 1 -13 11 -19
5 -15 -15 1 -5 -4 -4 -12 2 -8 7 -17 9 -20 5 -4 -3 -7 -1 -7 5 0 7 -5 12 -11
12 -6 0 -9 -7 -6 -15 7 -15 -9 -29 -33 -30 -8 0 -15 -5 -15 -12 0 -6 -3 -14
-6 -17 -3 -3 -6 2 -6 12 0 21 29 45 38 30 4 -6 9 -6 12 -1 3 5 -3 14 -14 21
-10 7 -18 9 -17 5 2 -5 0 -9 -4 -10 -11 -4 -48 -42 -48 -49 0 -3 6 -2 13 2 7
4 9 3 4 -2 -5 -5 -14 -9 -20 -9 -7 -1 -11 -7 -9 -15 2 -8 0 -12 -4 -8 -4 4
-14 2 -22 -5 -12 -9 -14 -9 -9 0 5 7 -1 17 -13 23 -20 11 -21 10 -10 -10 7
-13 8 -20 2 -16 -6 3 -12 3 -15 -1 -2 -5 -2 -3 -1 4 2 7 -1 15 -6 18 -5 3 -10
-5 -12 -17 -2 -13 -9 -24 -15 -24 -7 -1 -15 -3 -18 -4 -3 -1 -11 -3 -17 -4 -7
-1 -12 -7 -11 -13 2 -7 -6 -10 -17 -8 -11 2 -27 -3 -35 -11 -8 -9 -15 -11 -15
-6 0 5 -7 9 -15 9 -8 0 -15 -4 -15 -9 0 -5 -4 -6 -10 -3 -15 9 -30 -4 -24 -20
4 -8 11 -12 16 -9 6 4 5 10 -3 15 -9 6 -4 8 15 5 16 -3 31 -8 35 -12 3 -4 -2
-4 -11 -1 -9 3 -22 -1 -28 -8 -7 -8 -16 -13 -20 -10 -5 3 -10 2 -13 -2 -2 -5
-2 -2 -1 5 2 6 -1 12 -6 12 -10 0 -29 -30 -27 -42 1 -3 -1 -9 -5 -13 -8 -9 -3
37 6 56 4 8 0 5 -9 -6 -9 -11 -21 -19 -27 -17 -6 2 -5 -5 3 -14 13 -16 12 -16
-7 -6 -22 12 -34 7 -34 -12 0 -6 5 -4 10 4 5 8 10 11 10 5 0 -5 -4 -16 -9 -24
-7 -11 -10 -9 -16 9 -6 18 -9 20 -16 9 -5 -8 -9 -18 -9 -24 0 -5 5 -3 10 5 7
12 9 10 8 -6 -1 -13 -8 -21 -18 -19 -8 1 -14 10 -12 21 2 16 -1 15 -17 -6 -15
-19 -17 -28 -8 -39 10 -12 9 -13 -2 -6 -8 4 -32 9 -55 10 -23 1 -35 0 -28 -2
6 -3 12 -9 12 -15 0 -6 -7 -8 -15 -4 -8 3 -14 0 -12 -6 1 -6 -4 -13 -12 -16
-9 -3 -11 0 -6 9 6 11 5 11 -5 2 -11 -10 -11 -15 0 -28 11 -13 10 -14 -5 -9
-12 5 -16 4 -12 -3 8 -13 -18 -11 -30 1 -4 4 -2 6 6 4 7 -1 16 4 18 12 4 12 3
12 -5 2 -5 -8 -12 -13 -16 -13 -23 3 -30 0 -16 -9 13 -8 13 -11 1 -22 -8 -7
-11 -8 -8 -2 4 7 -2 14 -13 17 -17 4 -18 3 -8 -16 11 -21 10 -21 -7 -7 -15 12
-17 12 -10 1 6 -11 4 -13 -11 -7 -10 4 -15 4 -11 0 3 -4 -3 -15 -14 -25 -12
-10 -18 -23 -14 -28 3 -6 4 -11 1 -11 -3 0 -10 10 -17 21 -7 13 -7 19 -1 15 6
-3 13 -2 16 3 4 5 -2 8 -11 7 -11 -2 -18 -12 -18 -24 0 -11 -4 -24 -9 -29 -5
-4 -6 -3 -3 3 10 17 -19 25 -32 10 -7 -9 -7 -16 2 -25 10 -11 8 -11 -10 -2
-32 16 -38 14 -16 -6 10 -10 14 -14 7 -10 -7 4 -15 3 -19 -3 -3 -5 -12 -10
-18 -10 -7 0 -6 4 3 11 13 9 13 10 0 6 -8 -2 -15 -13 -14 -24 1 -24 -22 -25
-38 -2 -8 11 -9 10 -4 -5 7 -20 -20 -59 -35 -51 -4 3 -10 1 -14 -5 -3 -5 -1
-10 6 -10 7 0 10 -2 7 -5 -3 -3 -13 -3 -22 1 -14 5 -14 9 -4 23 12 14 11 14
-4 3 -10 -8 -16 -24 -15 -35 1 -16 -3 -21 -17 -19 -10 2 -16 -1 -12 -6 3 -5
-2 -9 -11 -9 -12 0 -11 5 7 19 27 22 24 33 -4 13 -10 -8 -19 -24 -20 -37 0
-13 -7 -23 -14 -23 -7 0 -16 -6 -21 -14 -7 -10 -13 -11 -32 -1 -19 10 -22 10
-12 0 13 -14 7 -40 -9 -40 -6 0 -5 6 2 15 7 9 8 15 2 15 -12 0 -24 -28 -17
-40 3 -5 0 -12 -6 -16 -7 -4 -9 -3 -6 2 3 6 2 16 -4 24 -7 12 -9 10 -9 -8 0
-20 -2 -21 -21 -11 -17 9 -20 8 -14 -2 6 -9 3 -10 -11 -5 -15 5 -16 4 -7 -5
13 -13 7 -39 -9 -39 -6 0 -5 6 2 15 9 10 9 15 1 15 -6 0 -11 -5 -11 -11 0 -5
-4 -8 -8 -5 -12 7 -35 -10 -38 -28 -1 -9 2 -14 7 -10 5 3 7 9 4 14 -3 4 2 10
10 14 21 8 19 -7 -3 -27 -21 -19 -47 -23 -36 -5 5 7 3 8 -5 3 -7 -4 -11 -15
-8 -25 3 -13 0 -17 -9 -13 -8 3 -11 9 -8 14 3 5 -2 6 -11 3 -13 -5 -12 -9 6
-25 27 -23 12 -25 -19 -3 -26 18 -30 7 -4 -12 16 -13 16 -14 -2 -7 -15 5 -17
3 -11 -8 5 -8 -2 -5 -16 6 -13 11 -19 13 -12 6 17 -20 5 -39 -22 -35 -14 1
-28 -3 -32 -8 -3 -6 -1 -8 4 -5 6 4 11 -4 10 -20 0 -21 -1 -23 -9 -10 -7 14
-12 15 -28 4 -11 -6 -20 -19 -20 -29 0 -9 -5 -20 -11 -24 -8 -4 -9 1 -5 17 3
13 3 18 0 11 -3 -6 -10 -10 -15 -7 -5 4 -6 0 -3 -8 3 -9 -6 -18 -28 -25 -18
-7 -23 -10 -11 -8 12 2 24 -2 27 -10 3 -9 0 -11 -11 -7 -11 4 -14 2 -9 -5 5
-8 2 -10 -8 -6 -16 6 -19 -2 -17 -36 0 -11 -1 -11 -5 -2 -5 10 -9 10 -20 1 -8
-6 -11 -15 -8 -20 3 -5 -1 -6 -9 -3 -8 3 -18 0 -22 -6 -5 -8 -11 -7 -23 2 -9
7 -13 8 -10 3 4 -6 3 -17 -2 -25 -5 -9 -4 -20 3 -30 11 -13 10 -13 -5 -1 -10
7 -16 17 -13 21 3 5 1 11 -4 15 -11 6 -7 -27 5 -47 4 -7 3 -8 -4 -4 -7 4 -12
2 -12 -3 0 -6 -5 -11 -11 -11 -8 0 -8 4 0 14 8 10 9 16 1 21 -6 4 -9 1 -8 -7
2 -7 -5 -13 -14 -13 -9 0 -20 -4 -25 -9 -4 -5 -3 -6 3 -3 7 4 17 1 23 -7 9
-11 6 -13 -14 -11 -28 4 -42 -10 -24 -21 7 -4 9 -3 6 4 -5 6 1 8 15 4 16 -4
18 -7 8 -10 -8 -3 -21 -10 -29 -16 -11 -8 -13 -8 -8 0 4 7 0 15 -9 18 -8 3
-12 2 -9 -4 3 -6 1 -10 -4 -10 -6 0 -11 -4 -11 -10 0 -5 3 -9 8 -9 4 1 14 1
22 0 29 -3 -9 -18 -40 -16 -16 1 -27 -2 -24 -6 2 -4 0 -10 -6 -14 -5 -3 -10
-11 -10 -16 0 -6 5 -7 12 -3 7 4 8 3 4 -4 -5 -9 -13 -9 -26 -2 -16 8 -18 8
-14 -5 4 -8 10 -15 15 -15 5 0 9 -5 9 -12 0 -6 -3 -8 -7 -5 -3 4 -13 1 -21 -6
-13 -9 -14 -9 -8 1 4 6 3 12 -3 12 -16 0 -19 -24 -4 -35 12 -9 11 -11 -6 -11
-11 0 -18 3 -15 7 2 4 -3 10 -12 13 -8 3 -13 2 -9 -3 3 -5 -1 -12 -7 -14 -10
-4 -10 -6 0 -6 22 -2 13 -21 -21 -41 -17 -11 -26 -20 -19 -20 6 0 12 -6 12
-12 -1 -7 -10 -2 -22 12 -15 18 -19 20 -15 6 5 -13 3 -17 -8 -13 -8 4 -17 1
-21 -5 -5 -7 -2 -8 6 -3 8 5 11 3 8 -6 -3 -8 -9 -13 -14 -12 -5 0 -16 -6 -24
-15 -13 -14 -12 -15 4 -9 12 5 16 3 13 -5 -2 -7 -10 -13 -19 -13 -8 0 -23 -9
-34 -20 -17 -17 -17 -18 -1 -12 9 3 17 2 17 -3 0 -9 -30 -15 -52 -11 -5 0 -7
-2 -7 -7 3 -20 -2 -32 -13 -26 -7 4 -8 3 -4 -5 4 -6 12 -8 18 -5 5 4 2 -6 -8
-21 -17 -25 -19 -26 -31 -9 -10 14 -13 15 -13 3 0 -9 3 -19 7 -23 11 -10 12
-37 2 -30 -5 3 -7 9 -4 14 3 4 -3 10 -13 12 -12 4 -18 -1 -18 -13 0 -10 4 -16
7 -13 4 2 11 -1 15 -8 4 -7 3 -10 -1 -5 -10 8 -46 -43 -39 -54 2 -4 1 -10 -4
-13 -4 -2 -8 8 -7 24 0 15 3 26 7 24 4 -2 10 1 13 7 5 7 1 9 -11 7 -11 -2 -18
-10 -16 -17 2 -9 -3 -11 -15 -7 -14 6 -16 5 -6 -5 17 -17 17 -34 0 -20 -17 13
-28 4 -20 -17 4 -9 2 -13 -4 -9 -10 6 -36 -20 -41 -44 -2 -7 -8 -17 -13 -20
-6 -3 -11 -15 -12 -26 0 -13 -6 -19 -14 -16 -11 4 -11 8 -1 22 12 14 11 14 -4
2 -10 -7 -15 -17 -13 -22 3 -4 -4 -13 -15 -19 -11 -6 -18 -16 -14 -22 4 -7 13
-3 24 11 16 22 17 22 31 4 12 -16 12 -17 -1 -6 -13 10 -18 8 -29 -8 -7 -12
-18 -18 -26 -15 -15 5 -39 -17 -28 -27 3 -4 1 -7 -5 -7 -6 0 -12 -10 -14 -22
-2 -14 -10 -23 -20 -22 -11 1 -14 -4 -11 -14 4 -10 2 -13 -5 -8 -6 3 -14 1
-18 -5 -4 -8 -3 -9 4 -5 7 4 12 2 12 -4 0 -6 6 -8 13 -4 6 4 4 -2 -7 -14 -19
-22 -35 -24 -49 -7 -5 6 -7 4 -6 -5 3 -29 -1 -41 -12 -34 -7 4 -6 -2 2 -17 11
-22 11 -23 -4 -11 -13 11 -15 10 -10 -8 4 -16 2 -19 -11 -14 -17 6 -23 -11 -7
-21 6 -3 8 -15 6 -26 -2 -12 2 -28 10 -36 9 -8 13 -18 10 -23 -3 -5 -1 -11 5
-15 6 -4 7 -11 4 -17 -5 -7 -2 -8 6 -3 9 5 10 1 6 -16 -6 -21 -5 -21 4 -6 14
21 30 14 25 -12 -2 -11 3 -22 12 -25 12 -5 14 -1 9 21 -5 24 -5 26 5 9 9 -15
9 -24 0 -38 -9 -15 -9 -22 4 -34 8 -9 15 -12 15 -7 0 5 -5 14 -12 21 -9 9 -6
10 12 7 25 -5 40 -15 22 -15 -7 0 -12 -7 -12 -16 0 -9 6 -14 13 -11 9 3 12 -5
12 -28 -1 -27 2 -32 19 -31 15 1 20 7 18 21 -2 16 -1 17 7 6 6 -9 6 -21 0 -32
-15 -29 -10 -33 13 -13 12 10 18 13 14 6 -4 -7 -1 -15 8 -18 9 -3 14 -10 11
-14 -3 -5 -1 -12 5 -15 8 -5 7 -11 -1 -21 -6 -8 -9 -17 -5 -21 3 -3 6 -1 6 6
0 7 5 9 10 6 8 -5 7 -11 -1 -21 -16 -19 -4 -18 15 2 15 14 16 13 14 -8 -2 -16
2 -23 14 -22 13 1 15 -5 13 -30 -3 -25 -2 -27 6 -13 8 13 14 15 30 7 10 -6 19
-15 19 -21 0 -6 -7 -3 -16 6 -9 9 -19 14 -21 11 -3 -3 2 -12 11 -21 9 -9 13
-21 10 -27 -5 -7 -2 -8 7 -2 22 14 44 15 30 1 -18 -18 -13 -29 8 -17 14 7 22
7 27 -2 4 -6 3 -8 -3 -5 -6 4 -16 0 -23 -8 -11 -13 -8 -15 14 -15 22 0 26 -4
21 -19 -4 -14 0 -21 15 -26 11 -3 20 -11 20 -16 0 -6 6 -7 13 -3 9 6 10 4 0
-7 -21 -21 -15 -28 20 -24 23 3 28 2 17 -5 -9 -6 -11 -13 -5 -17 6 -5 11 -15
13 -23 2 -8 10 -19 18 -23 8 -5 11 -13 8 -19 -4 -7 -2 -8 5 -4 8 6 9 12 2 20
-6 7 -7 17 -3 21 4 5 1 5 -7 0 -10 -6 -12 -4 -6 5 6 9 4 11 -5 5 -9 -5 -11 -4
-6 4 9 15 37 -4 33 -22 -1 -7 8 -11 21 -10 13 2 21 -1 17 -7 -3 -6 -13 -10
-21 -10 -23 0 -16 -20 9 -21 12 -1 26 -1 30 0 5 1 6 -3 2 -8 -3 -6 -13 -8 -23
-5 -15 5 -15 4 1 -6 9 -6 15 -17 11 -23 -3 -7 1 -4 9 6 13 16 15 16 21 2 3 -9
11 -13 17 -9 8 5 9 3 4 -6 -6 -10 -4 -12 10 -6 15 5 16 4 5 -9 -7 -8 -10 -16
-6 -16 3 -1 10 -2 15 -3 5 0 13 -5 18 -10 5 -5 3 -6 -4 -2 -8 4 -13 1 -13 -8
0 -19 11 -20 30 -4 12 11 12 10 2 -2 -15 -21 -12 -59 5 -53 7 3 13 13 13 22 0
14 -2 14 -10 1 -6 -9 -10 -10 -10 -3 0 16 17 26 24 14 3 -5 7 -20 8 -33 1 -14
8 -25 15 -25 8 0 12 6 9 12 -2 6 2 12 9 12 8 0 11 -7 7 -15 -3 -10 -1 -13 7
-8 6 4 11 4 10 -1 -6 -33 3 -62 21 -68 11 -4 18 -11 15 -16 -3 -5 2 -6 11 -2
14 5 12 8 -10 20 -20 11 -24 18 -17 30 5 9 16 18 25 19 9 1 14 -2 10 -7 -3 -5
-10 -7 -15 -4 -17 11 -9 -15 11 -32 18 -16 19 -18 3 -36 -14 -15 -14 -18 -3
-15 8 2 14 -3 12 -10 -1 -8 2 -11 7 -8 5 3 14 -1 21 -9 8 -10 18 -11 35 -5 29
11 37 3 24 -22 -9 -17 -8 -19 10 -13 12 4 21 2 21 -4 0 -6 -4 -11 -10 -11 -5
0 -10 -4 -10 -10 0 -5 3 -9 8 -8 13 5 61 -45 55 -56 -4 -7 -1 -6 8 1 20 16 45
11 70 -15 11 -12 23 -20 27 -18 4 3 9 -6 10 -20 1 -13 -3 -24 -10 -24 -6 0 -8
-3 -5 -6 10 -10 38 17 31 30 -3 6 3 1 14 -11 11 -12 23 -19 26 -15 4 3 4 -2 0
-12 -7 -17 -8 -17 -19 4 -10 19 -13 20 -18 6 -4 -10 -3 -14 2 -11 5 3 13 -4
16 -15 5 -17 9 -19 21 -9 8 6 17 9 21 5 3 -3 0 -6 -7 -6 -8 0 -3 -8 10 -20 13
-11 28 -20 34 -20 6 0 4 -5 -4 -11 -12 -8 -10 -9 8 -4 23 7 29 -4 12 -21 -7
-7 -6 -11 3 -11 18 0 77 -44 77 -57 0 -6 7 0 16 12 17 25 37 21 27 -6 -6 -15
-5 -16 13 -2 18 14 18 14 5 -3 -14 -18 -16 -18 -28 -1 -7 10 -13 13 -13 7 0
-13 20 -30 40 -35 21 -5 39 -22 32 -32 -3 -5 0 -6 7 -2 9 6 9 11 0 22 -7 8 -7
14 -1 14 14 0 23 -26 16 -47 -5 -15 -4 -16 5 -3 6 8 11 10 11 4 0 -14 33 -14
42 0 5 7 11 7 20 -3 7 -8 8 -11 2 -8 -6 4 -20 -3 -30 -14 -18 -20 -18 -20 10
-10 34 14 36 14 36 0 0 -5 -5 -7 -12 -3 -7 4 -8 3 -4 -4 4 -7 14 -12 22 -12 8
0 14 -6 14 -14 0 -17 28 -41 49 -41 9 0 15 -6 14 -12 -2 -7 3 -12 10 -10 6 1
11 -4 9 -12 -3 -12 0 -12 12 -1 15 11 20 7 17 -12 0 -4 7 -4 16 -1 12 5 14 3
8 -7 -5 -8 -4 -11 3 -6 6 4 10 12 8 19 -1 7 -1 9 1 5 3 -5 9 -8 14 -8 6 0 7 6
3 13 -4 7 -3 9 2 4 5 -5 9 -12 9 -15 1 -16 17 -32 28 -26 7 4 6 1 -2 -7 -10
-11 -15 -11 -18 -1 -3 6 -10 9 -15 6 -7 -5 -8 -2 -3 7 8 12 6 12 -8 0 -9 -7
-17 -16 -17 -19 0 -3 3 -3 6 1 10 9 86 -32 79 -43 -10 -16 2 -11 16 7 12 14
12 16 0 8 -10 -6 -12 -4 -6 5 5 8 4 11 -1 7 -6 -3 -16 -1 -24 4 -12 7 -10 8 7
6 11 -2 27 -8 35 -14 7 -6 21 -9 31 -8 9 2 15 0 12 -5 -3 -5 2 -16 11 -25 9
-9 15 -18 13 -20 -6 -6 -36 19 -35 29 1 5 -6 10 -15 11 -9 2 -16 -4 -16 -11 0
-8 2 -12 5 -9 3 2 16 -5 30 -15 24 -19 26 -20 45 -3 19 17 20 17 9 -2 -9 -18
-7 -21 11 -22 12 -1 28 3 37 10 8 6 4 -1 -10 -16 -20 -23 -21 -27 -6 -21 13 5
17 4 12 -4 -3 -6 -2 -13 3 -16 4 -3 8 4 7 16 0 12 6 23 14 25 11 3 12 2 3 -4
-10 -7 -9 -14 3 -31 16 -24 39 -20 30 5 -4 8 -1 11 5 7 6 -3 9 -15 6 -25 -4
-15 -2 -17 13 -9 13 7 21 7 25 -1 4 -6 14 -8 22 -5 8 4 11 1 8 -5 -4 -6 -14
-8 -22 -5 -8 3 -11 1 -8 -4 3 -5 24 -8 46 -6 44 4 45 4 22 -15 -9 -8 -14 -9
-10 -2 8 12 -18 12 -28 0 -3 -4 -2 -5 2 -2 10 8 33 -16 27 -29 -3 -6 3 -2 13
9 10 11 25 21 33 23 10 1 9 -3 -4 -13 -24 -19 -15 -30 12 -16 26 14 43 14 20
0 -10 -5 -18 -15 -18 -21 0 -6 7 -5 17 3 15 12 16 12 10 -3 -4 -13 -2 -16 11
-11 9 3 22 10 28 15 7 5 14 3 17 -6 4 -10 1 -13 -7 -10 -17 7 -41 -22 -26 -31
6 -4 9 -3 8 2 -2 4 1 8 7 8 5 0 9 -4 7 -9 -2 -5 5 -3 14 5 16 12 17 12 11 -3
-4 -12 -2 -15 8 -12 8 3 11 13 8 21 -4 9 4 5 19 -8 13 -13 23 -27 21 -31 -2
-4 10 -5 27 -3 16 2 30 -1 30 -6 0 -6 -4 -7 -10 -4 -5 3 -10 1 -10 -4 0 -15
13 -14 29 2 10 10 11 8 5 -8 -6 -16 -5 -18 7 -9 11 9 17 8 29 -4 13 -14 12
-15 -3 -9 -9 3 -17 3 -17 -2 0 -5 9 -11 20 -14 11 -3 18 -1 15 3 -3 5 -1 11 4
14 5 4 11 -1 13 -11 3 -15 4 -15 21 2 13 13 18 14 17 4 -4 -25 0 -39 11 -39 5
0 8 4 4 9 -3 5 -1 12 3 15 5 3 9 -5 8 -17 -1 -12 -8 -21 -15 -19 -7 1 -10 -2
-6 -7 10 -17 35 0 35 23 0 16 2 18 9 6 6 -8 7 -18 4 -24 -4 -5 1 -7 10 -3 11
4 17 1 17 -9 0 -8 5 -12 10 -9 6 4 8 10 5 15 -3 4 3 7 12 5 10 -2 21 -4 25 -4
4 -1 5 -10 3 -21 -2 -12 4 -24 16 -30 10 -6 19 -8 19 -4 0 3 6 1 13 -5 16 -13
28 -5 20 15 -3 8 -1 14 4 14 13 0 13 -32 -1 -50 -9 -13 -9 -13 6 -2 10 8 23
10 30 6 9 -6 9 -3 -1 9 -12 15 -12 17 3 11 16 -6 19 -15 17 -44 0 -10 1 -11 5
-2 3 7 15 17 26 23 15 8 19 8 14 0 -7 -10 5 -15 29 -12 6 1 1 -6 -10 -15 -19
-15 -19 -15 10 -8 17 4 37 12 45 18 8 6 7 1 -4 -11 -10 -12 -16 -28 -13 -35 4
-9 6 -7 6 4 1 11 6 15 16 12 8 -4 12 -11 8 -18 -3 -6 0 -5 8 2 11 11 12 14 1
21 -11 7 -11 9 0 14 9 3 14 -3 16 -16 0 -12 6 -23 12 -25 5 -2 8 -8 5 -13 -4
-5 1 -6 10 -3 14 6 14 8 -2 21 -16 13 -16 13 6 3 19 -10 25 -9 32 1 5 8 9 10
9 5 0 -5 -8 -19 -17 -30 -15 -17 -15 -18 -2 -8 14 10 20 10 33 -3 9 -9 16 -13
16 -8 0 5 -5 14 -10 19 -8 8 -5 15 7 24 14 11 16 11 6 1 -19 -22 11 -59 42
-53 14 2 25 9 25 15 0 6 3 7 6 4 4 -4 1 -13 -6 -22 -8 -9 -8 -15 -2 -15 6 0
13 4 16 9 11 17 76 -4 76 -24 0 -8 5 -17 12 -21 7 -4 8 -3 4 4 -5 8 2 12 19
12 20 0 26 -4 22 -14 -4 -10 -1 -13 8 -9 8 3 12 10 8 17 -4 7 -1 7 9 -1 8 -7
17 -11 20 -8 3 3 11 -2 19 -12 12 -14 12 -16 0 -8 -10 5 -12 4 -7 -4 6 -9 11
-9 23 1 17 14 43 20 42 10 -1 -4 0 -18 1 -32 2 -19 3 -21 7 -7 5 18 5 18 19 0
11 -15 13 -15 8 -2 -3 10 0 20 7 25 8 5 10 3 4 -6 -5 -9 -2 -10 14 -5 12 4 21
2 21 -4 0 -6 -5 -10 -11 -8 -6 1 -13 -4 -15 -11 -1 -7 0 -8 3 -2 3 7 12 5 26
-7 11 -10 17 -12 13 -5 -4 7 -1 12 9 12 10 0 13 5 9 12 -4 7 -3 8 4 4 6 -4 8
-14 5 -24 -6 -14 -4 -15 8 -5 14 12 43 12 54 1 3 -3 -4 -5 -16 -4 -12 0 -24
-6 -26 -14 -4 -12 -3 -12 5 -1 6 9 12 10 16 2 5 -7 13 -7 28 2 16 9 22 9 25 0
3 -7 14 -13 24 -13 13 0 18 -4 13 -12 -5 -7 -3 -8 6 -3 10 6 9 11 -4 21 -15
11 -15 12 7 10 18 -1 23 -6 21 -22 -1 -17 3 -20 29 -16 18 3 27 1 24 -5 -4 -6
1 -10 11 -10 49 0 73 -4 68 -11 -2 -4 4 -8 14 -8 10 0 17 3 14 7 -2 4 2 10 8
13 7 3 3 3 -9 1 -12 -3 -24 -2 -26 3 -3 4 6 7 21 6 44 -3 48 -4 32 -14 -8 -5
-11 -12 -8 -15 4 -4 13 -3 20 1 7 5 22 10 33 11 16 2 17 1 5 -6 -8 -5 -17 -8
-20 -6 -4 2 -7 -2 -7 -10 0 -11 4 -12 14 -4 7 6 19 9 27 6 7 -3 19 0 25 6 9 9
14 8 21 -3 5 -8 6 -18 3 -24 -3 -5 -1 -6 5 -2 6 3 13 2 16 -3 4 -5 14 -8 24
-6 9 2 20 4 24 4 5 1 7 6 5 13 -1 7 3 12 8 13 6 0 17 4 25 10 13 8 13 7 1 -8
-7 -9 -18 -14 -24 -10 -6 4 -7 1 -3 -6 5 -7 14 -10 22 -7 8 3 13 0 11 -7 -1
-7 6 -11 17 -9 13 2 16 -1 10 -10 -6 -9 -3 -9 10 1 15 13 19 13 26 0 7 -10 12
-11 20 -3 9 9 9 14 -1 19 -8 6 -10 4 -4 -5 5 -8 4 -11 -3 -6 -6 4 -8 14 -5 23
4 11 8 13 11 5 2 -7 8 -10 13 -6 5 3 9 2 8 -3 -3 -19 2 -31 14 -36 8 -3 14 1
14 9 0 7 -4 11 -9 8 -4 -3 -5 2 -2 10 6 16 25 23 23 8 -4 -25 3 -33 24 -27 15
4 18 3 8 -3 -8 -6 -9 -12 -3 -16 6 -3 15 6 20 21 6 16 11 21 11 12 1 -9 8 -20
17 -23 22 -9 26 -8 18 6 -4 7 -3 8 5 4 6 -4 19 -2 28 6 12 9 15 9 9 1 -4 -8
-2 -13 5 -13 8 0 8 -5 -2 -18 -10 -13 -8 -12 9 3 17 13 23 15 20 5 -2 -8 2
-14 7 -15 6 0 15 -4 22 -8 8 -5 11 -1 8 13 -2 11 0 18 5 15 4 -3 11 1 13 7 4
10 6 10 6 0 1 -7 5 -11 10 -7 5 3 13 0 17 -6 4 -7 3 -9 -3 -6 -5 3 -10 1 -10
-6 0 -8 14 -13 33 -13 18 0 31 4 28 8 -2 4 -12 5 -22 3 -12 -2 -17 4 -19 23
l-1 27 13 -25 c7 -14 16 -24 19 -22 15 6 25 1 29 -15 4 -17 5 -17 6 0 0 9 6
17 12 17 6 0 8 -7 5 -16 -3 -9 -2 -12 5 -9 6 4 8 13 5 21 -3 7 0 16 6 20 6 4
8 3 4 -4 -3 -6 -2 -13 3 -17 6 -3 7 -13 4 -23 -6 -16 -6 -16 11 0 22 23 37 23
30 1 -4 -12 -3 -14 3 -6 5 7 21 10 35 8 15 -3 29 -1 33 5 4 6 -1 7 -12 3 -10
-3 -15 -3 -11 1 3 4 14 9 25 10 10 2 17 11 16 21 -1 12 2 14 10 6 7 -7 6 -15
-3 -26 -18 -22 7 -20 33 2 19 18 20 17 8 -5 -7 -13 -10 -26 -7 -30 3 -3 6 1 6
9 0 11 2 11 10 -1 5 -8 10 -10 10 -3 0 6 8 10 18 8 9 -2 17 -4 17 -5 0 -1 8
-3 18 -5 9 -2 15 1 11 6 -3 5 -9 7 -14 4 -5 -3 -12 0 -16 6 -4 7 -3 9 4 5 6
-3 16 2 22 11 10 15 11 15 6 1 -2 -9 1 -19 9 -22 10 -3 12 0 9 12 -3 9 2 6 10
-8 8 -14 15 -20 16 -13 0 6 3 19 7 29 5 13 3 15 -7 9 -9 -5 -11 -4 -6 4 9 14
29 3 23 -13 -3 -7 3 -17 12 -23 14 -9 18 -8 18 3 0 7 -5 10 -11 7 -6 -4 -5 0
1 9 7 8 12 17 10 19 -1 2 0 3 3 1 3 -2 5 -7 6 -10 0 -4 4 -15 8 -24 7 -15 11
-13 37 13 32 33 36 35 36 14 0 -8 -3 -13 -6 -11 -3 2 -12 -2 -19 -10 -23 -25
8 -15 33 11 14 13 25 21 25 16 0 -4 7 -16 15 -27 8 -10 15 -14 14 -9 -4 31 2
38 16 19 13 -16 14 -16 9 -1 -5 13 -2 16 12 10 12 -4 15 -3 10 5 -5 8 -2 10 9
6 13 -5 13 -9 3 -23 -9 -11 -6 -10 9 3 22 18 22 43 1 30 -7 -4 -8 -2 -4 5 6 9
11 9 22 0 7 -6 12 -15 9 -19 -9 -15 13 -20 24 -6 10 11 8 17 -6 25 -16 9 -16
10 4 8 12 0 20 -4 17 -8 -2 -4 4 -8 13 -8 25 0 51 -6 59 -14 3 -3 13 1 21 9
12 12 18 12 31 2 13 -11 14 -11 7 1 -6 11 -3 13 13 9 15 -4 19 -2 15 8 -4 10
0 12 13 8 11 -4 24 -11 30 -15 6 -5 11 -3 11 6 0 7 -5 13 -10 12 -5 -1 -12 5
-14 13 -4 13 -3 13 6 0 6 -8 11 -11 11 -6 0 5 10 1 22 -10 12 -10 18 -14 15
-7 -7 10 43 34 67 32 5 0 13 6 18 15 12 21 38 9 38 -18 0 -16 2 -18 9 -6 6 8
7 19 4 25 -4 5 -2 7 2 2 5 -4 16 0 25 8 14 13 17 13 17 0 0 -8 -4 -12 -8 -10
-3 3 -12 -2 -18 -9 -9 -10 -9 -16 -1 -21 6 -4 9 -1 8 5 -2 7 5 14 15 15 9 2
17 -2 17 -8 0 -8 3 -8 9 1 4 7 13 12 18 10 10 -3 13 1 13 17 0 3 -9 1 -20 -5
-14 -7 -20 -7 -20 0 0 9 22 15 44 11 4 -1 14 4 22 10 8 6 14 8 14 4 0 -4 6 -2
13 4 8 6 17 8 20 4 4 -3 14 0 24 8 11 9 14 10 9 2 -4 -8 -1 -13 9 -13 10 0 13
-5 9 -12 -4 -7 -3 -8 5 -4 9 6 9 11 -1 24 -11 13 -10 14 9 4 12 -7 24 -17 27
-24 3 -7 3 -2 0 10 -5 22 -4 23 16 12 15 -8 20 -8 16 -1 -4 6 -3 11 3 11 5 0
12 -4 16 -10 8 -13 35 -1 35 16 0 8 5 14 11 14 6 0 8 -8 5 -18 -6 -16 -5 -16
7 0 10 12 17 14 24 7 8 -8 13 -8 17 0 4 5 14 8 24 5 12 -4 14 -3 4 3 -10 8
-10 12 2 22 11 9 16 9 22 0 5 -8 3 -9 -6 -4 -9 5 -11 4 -6 -4 6 -8 12 -9 20
-2 8 7 16 7 23 0 6 -6 10 -5 10 5 0 8 -8 13 -19 11 -10 -2 -18 0 -18 6 0 10
41 5 62 -7 8 -5 7 0 -2 11 -14 17 -14 18 8 6 12 -6 22 -7 22 -2 0 5 -6 12 -12
14 -8 3 -6 6 5 6 9 1 17 -3 17 -8 0 -5 6 -11 13 -14 8 -3 14 1 14 9 0 7 -5 10
-10 7 -6 -3 -7 -1 -3 5 4 8 15 8 31 2 19 -7 23 -6 18 5 -3 8 0 15 6 15 6 0 11
-4 11 -10 0 -5 5 -10 11 -10 6 0 8 9 4 23 -5 16 -4 18 4 8 11 -17 41 -24 41
-10 0 5 5 9 11 9 5 0 7 -6 3 -12 -6 -10 -5 -10 8 -1 8 7 19 9 23 5 5 -4 5 -1
1 6 -4 7 -12 10 -17 7 -5 -4 -6 2 -2 11 4 11 8 13 11 6 2 -7 8 -12 14 -12 6 0
8 6 5 14 -4 10 3 12 24 10 19 -2 28 0 24 6 -4 6 -3 10 2 9 4 -1 15 -1 23 0 13
1 13 2 0 11 -9 6 -10 10 -3 10 6 0 15 -5 18 -10 4 -6 11 -7 17 -4 7 4 8 2 4
-5 -4 -6 -11 -9 -16 -6 -4 3 -14 -3 -21 -13 -13 -16 -13 -16 5 -2 11 8 21 14
23 13 1 -2 8 -3 13 -3 14 0 12 28 -2 32 -7 3 -5 7 6 11 11 5 15 3 10 -5 -5 -8
-2 -9 10 -5 10 4 20 7 22 7 3 0 2 5 -2 11 -4 8 0 8 15 0 15 -8 27 -9 40 -1 29
15 38 12 15 -6 -18 -14 -18 -15 4 -4 18 9 21 14 12 25 -9 11 -7 12 9 8 13 -3
21 -1 21 8 0 8 6 5 15 -7 14 -18 14 -18 10 6 -4 24 -4 24 10 6 11 -15 15 -16
15 -5 0 8 -6 21 -12 28 -8 8 -1 7 20 -3 27 -14 32 -14 32 -2 0 8 5 18 12 22 7
4 8 3 4 -4 -4 -7 -3 -12 2 -12 16 0 22 13 11 26 -7 9 -6 12 5 10 9 -1 19 -6
23 -11 4 -4 2 -5 -4 -1 -17 10 -16 1 1 -13 11 -10 13 -5 11 24 -2 30 7 42 11
14 1 -5 2 -13 3 -18 0 -5 8 -12 17 -15 14 -6 15 -4 4 9 -12 14 -10 15 13 11
15 -2 26 -2 25 2 -1 4 4 18 11 32 11 23 11 23 7 3 -5 -27 11 -40 27 -24 9 9 7
10 -7 5 -14 -5 -17 -4 -12 5 5 7 17 10 28 8 16 -5 17 -3 6 10 -12 15 -11 15
11 4 19 -11 22 -11 16 0 -6 9 -3 11 8 6 9 -3 19 -2 23 4 3 6 12 8 19 5 8 -3
11 2 8 13 -3 11 4 21 22 29 17 8 23 17 19 25 -5 8 -2 8 9 -2 14 -11 18 -11 23
4 6 15 9 15 21 -6 8 -13 12 -16 9 -7 -5 18 16 30 39 22 8 -4 15 -1 15 6 0 6
-4 9 -9 5 -5 -3 -13 0 -17 7 -4 7 -4 10 1 6 4 -4 16 -3 26 2 13 8 20 6 27 -6
8 -15 10 -15 15 0 4 10 13 13 24 9 15 -5 15 -3 -2 10 -19 16 -18 18 5 21 6 0
15 8 20 16 5 8 10 10 10 5 0 -6 -5 -16 -11 -22 -7 -7 -6 -12 5 -16 10 -4 13
-1 10 7 -7 17 31 27 46 12 8 -7 8 -3 -1 11 -11 18 -16 20 -29 10 -13 -10 -13
-10 -3 4 7 9 9 20 5 25 -4 5 4 0 17 -11 19 -16 23 -17 19 -4 -5 12 -1 15 18
11 13 -2 32 -1 41 3 10 5 21 8 24 7 4 -1 5 8 2 18 -3 12 0 20 6 20 7 0 9 4 6
10 -3 6 1 7 9 4 9 -3 16 -1 16 5 0 6 5 11 11 11 5 0 8 -4 5 -9 -3 -5 1 -11 9
-15 8 -3 14 -2 14 2 -1 4 -1 14 0 22 1 12 5 10 17 -5 l16 -20 -4 20 c-2 16 2
20 24 20 15 -1 26 2 25 5 -1 3 2 6 7 7 5 1 13 7 17 15 7 11 11 10 19 -2 9 -12
10 -12 8 5 -2 15 2 19 16 17 18 -3 18 -2 2 13 -22 22 -20 28 5 14 16 -8 24 -8
33 2 6 6 6 9 1 6 -6 -3 -11 3 -11 13 0 14 6 17 25 13 14 -2 29 -7 34 -10 6 -3
7 -1 4 4 -10 15 18 24 32 10 8 -8 11 -8 11 1 0 11 -13 16 -32 13 -5 0 -8 3 -8
8 0 15 27 20 40 8 9 -9 11 -9 7 -1 -4 7 0 15 9 18 12 5 15 2 10 -9 -3 -10 -2
-14 5 -9 6 3 9 14 6 24 -3 11 2 21 10 24 8 3 11 2 8 -4 -3 -5 4 -7 15 -5 29 6
41 15 35 26 -4 5 -1 9 5 9 6 0 9 4 5 9 -3 5 0 13 6 17 7 4 9 3 6 -3 -4 -6 0
-13 8 -17 8 -3 17 -1 20 5 4 5 12 6 18 2 7 -4 6 0 -2 10 -7 9 -10 17 -5 17 5
0 2 5 -6 11 -13 9 -13 10 0 8 37 -4 43 0 29 18 -13 15 -12 15 8 3 12 -8 19
-19 15 -25 -3 -5 2 -4 11 4 9 7 17 19 17 26 0 7 7 18 15 25 12 10 18 10 30 0
15 -13 19 -8 16 22 -1 9 3 19 8 23 6 3 8 0 5 -8 -3 -8 2 -14 11 -14 10 0 14 6
10 15 -4 10 0 13 13 10 12 -3 33 7 56 28 21 19 33 34 28 34 -6 0 -14 -5 -17
-10 -4 -6 -11 -7 -17 -4 -7 5 -8 2 -3 -6 6 -9 4 -11 -5 -5 -9 5 -11 4 -6 -3 5
-8 2 -10 -8 -6 -9 3 -16 10 -16 16 0 5 4 7 9 3 5 -3 12 -1 16 5 4 6 11 8 16 5
5 -4 12 0 15 8 3 9 16 13 35 11 22 -3 29 0 29 14 0 15 -2 15 -10 2 -7 -10 -10
-11 -10 -2 0 7 7 15 15 18 8 4 12 10 9 15 -3 5 0 9 6 9 6 0 10 -6 8 -14 -2 -8
2 -15 7 -15 6 -1 10 5 10 12 0 6 5 12 12 12 6 0 15 4 20 9 4 5 3 6 -3 3 -7 -4
-14 0 -17 8 -4 9 -1 12 7 9 17 -7 48 24 40 38 -4 7 -2 8 5 4 6 -4 9 -12 6 -17
-4 -5 -1 -9 4 -9 10 0 15 20 12 45 -1 6 5 2 13 -8 12 -16 14 -16 20 -2 3 9 2
13 -4 10 -6 -3 -10 -1 -10 5 0 6 10 10 23 8 12 -1 23 2 24 7 1 6 -6 9 -15 7
-15 -2 -15 -1 1 8 9 6 15 15 12 21 -3 5 1 6 9 3 9 -3 13 -10 10 -15 -11 -18 9
-9 27 13 27 31 24 41 -5 13 -8 -8 -17 -11 -21 -6 -3 5 4 12 15 16 12 4 17 11
13 18 -4 7 5 4 20 -6 32 -21 37 -6 5 17 -23 15 -23 16 5 6 40 -14 46 -12 17 6
l-25 15 28 -6 c37 -7 52 2 35 23 -11 13 -11 14 0 8 9 -6 12 -3 10 10 -2 15 2
18 22 16 14 -2 22 -1 18 3 -3 4 2 15 13 26 11 11 17 24 14 29 -6 10 28 5 48
-7 6 -4 4 5 -6 20 -11 17 -13 25 -4 21 12 -4 64 44 60 57 -1 3 5 6 13 6 10 0
7 -8 -11 -27 -14 -14 -22 -30 -18 -34 5 -4 2 -6 -6 -4 -7 2 -16 -4 -18 -12 -4
-12 -3 -12 5 -2 5 8 13 14 18 15 5 1 8 5 7 8 -1 4 7 15 19 25 20 18 21 18 15
1 -4 -11 -3 -16 3 -12 6 4 9 14 8 23 -2 9 3 16 9 15 7 -2 12 3 10 10 -1 6 3
11 10 10 7 -2 10 4 6 13 -3 8 -2 14 3 13 21 -4 26 2 14 16 -11 13 -10 14 4 9
19 -7 22 11 4 20 -7 4 -3 4 8 2 30 -5 42 5 46 37 2 15 7 27 11 27 4 0 10 0 13
0 4 0 1 -6 -5 -13 -8 -10 -7 -14 4 -14 7 0 13 5 12 11 -1 6 6 10 15 10 10 -1
15 3 12 8 -3 5 -13 7 -21 4 -8 -3 -12 -2 -8 3 3 5 -1 12 -7 15 -7 3 0 3 16 -1
27 -5 28 -5 17 18 l-12 24 21 -24 21 -24 -6 30 c-3 22 -1 33 11 37 9 3 12 11
8 18 -4 9 -2 8 7 -1 11 -10 11 -15 1 -18 -6 -3 -9 -10 -6 -15 5 -7 2 -8 -6 -3
-9 6 -11 4 -5 -5 6 -10 11 -9 22 5 7 11 13 23 13 28 0 4 4 5 10 2 6 -3 7 1 4
9 -3 9 -11 13 -17 9 -6 -3 -7 -1 -3 6 4 6 12 9 17 6 5 -4 9 -1 9 5 0 7 6 10
14 7 8 -3 17 1 20 9 3 9 10 12 16 9 6 -4 7 2 1 18 -8 22 -7 24 14 21 14 -1 23
3 22 9 -1 7 6 11 16 9 21 -4 23 4 2 12 -8 3 -22 -2 -31 -12 -12 -11 -16 -12
-13 -3 3 8 20 22 39 32 19 10 35 26 36 34 4 26 34 66 44 60 6 -4 10 -1 10 5 0
7 7 9 17 6 10 -4 14 -4 10 0 -7 8 30 44 46 44 6 0 7 3 4 6 -4 4 -19 -2 -34
-12 -31 -20 -56 -27 -47 -13 3 5 10 7 15 4 5 -4 12 1 15 9 3 8 14 18 24 21 11
3 17 12 14 19 -3 7 3 19 12 27 10 8 15 9 11 3 -4 -7 0 -14 8 -17 12 -5 12 -1
4 21 l-10 26 22 -19 c22 -20 22 -20 12 0 -9 17 -5 26 25 55 19 19 38 35 41 35
3 0 4 8 3 18 -3 15 7 21 29 19 3 -1 5 9 5 21 -1 15 4 22 17 20 10 0 16 2 13 5
-3 3 -1 11 5 18 7 8 6 14 -2 20 -7 4 -9 3 -5 -4 3 -6 2 -13 -3 -16 -5 -4 -8 2
-7 11 2 11 11 18 24 17 13 -1 19 3 15 12 -3 9 2 12 17 9 18 -3 20 -2 10 10 -7
8 -9 15 -4 15 5 0 0 7 -10 15 -12 9 -15 15 -7 15 10 0 11 3 2 14 -9 11 -9 16
0 22 7 4 9 3 5 -4 -3 -6 -2 -13 4 -17 6 -4 8 -11 5 -16 -4 -5 -1 -9 4 -9 6 0
10 12 10 28 -3 44 0 64 9 58 5 -3 9 1 9 9 0 8 -5 13 -11 12 -6 -1 -10 4 -9 11
2 6 -2 12 -8 12 -5 0 -7 5 -4 10 3 6 -1 13 -9 16 -9 3 -14 10 -11 14 3 5 1 11
-5 15 -6 4 -7 12 -3 18 4 8 1 7 -9 -1 -10 -8 -19 -9 -22 -3 -3 5 0 12 6 14 7
3 -2 4 -19 2 -18 -2 -36 2 -39 8 -4 7 -4 9 1 5 4 -4 15 -2 23 5 13 10 14 9 7
-2 -5 -10 -4 -12 4 -7 19 12 3 25 -27 21 -15 -2 -21 -2 -14 1 6 3 9 11 5 17
-5 9 -3 9 8 0 10 -8 19 -9 29 -2 12 8 11 9 -5 7 -12 -2 -19 2 -17 10 2 10 -2
10 -16 3 -14 -7 -19 -6 -20 5 -1 7 -3 20 -4 28 -1 8 -8 12 -16 9 -12 -5 -12
-2 -3 16 9 17 9 21 -1 19 -7 -2 -12 3 -10 10 1 8 -2 11 -8 7 -5 -3 -10 -2 -10
4 0 10 -39 27 -53 23 -5 -1 -6 2 -2 7 3 6 13 8 23 5 15 -5 15 -5 -1 6 -9 6
-22 8 -27 5 -15 -9 -12 2 5 19 13 13 13 15 -5 21 -11 4 -17 11 -14 17 4 6 0 6
-13 -1 -26 -13 -35 -4 -22 20 7 15 6 21 -5 25 -8 3 -19 3 -23 1 -5 -3 -15 -1
-23 5 -12 8 -12 9 3 4 9 -3 17 -1 17 4 0 6 -4 10 -10 10 -5 0 -10 5 -10 11 0
5 5 7 12 3 7 -4 8 -3 4 5 -6 9 -11 9 -21 1 -9 -8 -14 -6 -19 5 -3 9 -2 13 3
10 5 -3 13 -1 16 5 4 6 1 9 -7 8 -7 -2 -12 2 -11 9 2 7 -3 10 -11 7 -7 -3 -12
-16 -10 -30 1 -13 -1 -22 -5 -19 -9 5 -8 36 3 53 5 8 -1 12 -18 12 -14 0 -26
4 -26 10 0 5 6 8 13 6 6 -1 9 -1 4 1 -4 3 -5 8 -2 13 3 4 -2 13 -10 20 -11 9
-18 10 -28 1 -8 -6 -17 -8 -20 -4 -10 10 -8 33 3 33 5 0 6 -8 3 -17 -6 -15 -5
-16 9 -3 21 20 1 41 -29 29 -14 -5 -23 -5 -23 1 0 6 8 10 18 10 14 0 15 2 2 9
-8 6 -18 7 -22 5 -4 -3 -5 1 -3 9 3 7 -3 21 -14 31 -11 10 -18 23 -15 28 3 4
0 7 -8 6 -7 -2 -12 3 -10 10 1 8 -2 11 -9 7 -7 -5 0 -19 20 -39 21 -22 27 -33
17 -33 -8 0 -13 3 -11 7 8 13 -53 63 -66 55 -8 -6 -10 -4 -5 4 5 7 14 10 22 7
8 -3 14 -1 14 4 0 5 -9 12 -20 15 -11 3 -20 13 -20 21 0 8 -4 14 -10 14 -5 0
-7 -7 -4 -15 4 -8 4 -15 1 -15 -13 0 -14 31 -1 44 12 13 12 15 -5 13 -11 0
-18 -4 -15 -8 2 -4 0 -10 -5 -13 -6 -4 -8 8 -6 26 2 18 1 27 -2 20 -3 -9 -9
-7 -21 6 -10 10 -14 13 -9 6 4 -6 0 -17 -10 -25 -16 -13 -17 -12 -4 4 12 16 9
21 -12 18 -4 -1 -3 8 3 19 10 18 7 24 -12 21 -5 0 -9 4 -9 9 -1 6 -2 16 -3 23
-1 6 -9 11 -19 9 -9 -2 -17 2 -17 8 0 5 -6 10 -14 10 -7 0 -20 8 -27 18 -12
15 -12 16 2 5 13 -10 16 -10 16 1 0 8 -8 13 -18 11 -10 -2 -27 4 -37 13 -10 9
-13 14 -7 10 7 -5 12 -2 12 7 0 8 -3 13 -5 10 -10 -10 -31 17 -25 33 4 14 3
15 -5 2 -8 -10 -8 -18 0 -27 6 -7 6 -13 2 -13 -5 0 -15 9 -22 21 -8 12 -9 19
-4 15 5 -3 9 1 9 9 0 10 -6 11 -24 4 -18 -6 -22 -6 -17 3 5 8 2 9 -9 5 -10 -4
-16 -2 -14 6 1 7 -4 11 -10 10 -7 -2 -13 2 -13 8 0 6 7 9 15 5 8 -3 15 -1 15
3 0 15 -27 20 -41 8 -7 -7 -5 -1 6 12 l20 24 -22 -7 c-15 -5 -23 -3 -23 4 0 6
-4 8 -10 5 -5 -3 -10 1 -10 10 0 13 4 14 23 4 17 -9 19 -9 11 0 -6 7 -20 14
-30 16 -11 1 -18 8 -17 14 2 6 -3 10 -10 8 -6 -1 -11 3 -10 8 1 6 -7 11 -17
11 -10 0 -17 -3 -14 -7 6 -10 -24 -5 -33 6 -4 4 -3 6 2 3 6 -3 16 0 23 8 8 8
9 14 2 15 -5 1 -16 2 -22 3 -7 1 -12 7 -10 14 1 9 -5 8 -22 -3 -18 -12 -26
-13 -32 -4 -4 8 -3 9 4 5 7 -4 12 -2 12 4 0 6 5 8 10 5 6 -3 10 -1 10 6 0 7
-10 9 -25 7 -13 -3 -22 -2 -20 2 8 12 -36 52 -52 46 -8 -3 -11 -1 -8 4 3 6 1
10 -5 10 -6 0 -8 5 -5 10 6 10 5 11 -33 15 -30 3 -37 11 -17 19 11 4 14 2 9
-6 -4 -7 -3 -8 5 -4 13 9 5 27 -12 25 -24 -3 -37 1 -37 12 0 8 4 8 14 0 11 -9
16 -9 22 0 4 7 3 9 -4 5 -6 -3 -13 -2 -17 4 -4 6 -11 7 -17 4 -8 -5 -9 -1 -5
10 4 9 3 14 -2 11 -5 -3 -12 -1 -16 5 -4 7 -12 7 -25 0 -30 -16 -34 -12 -10 8
18 14 19 19 7 19 -9 0 -14 -4 -11 -9 3 -4 0 -8 -5 -8 -6 0 -11 7 -11 15 0 19
-23 15 -32 -5 -5 -12 -7 -11 -7 3 -1 10 -6 15 -11 12 -6 -4 -10 -3 -9 2 3 19
-2 34 -10 28 -5 -3 -12 -1 -16 4 -3 6 -13 8 -23 5 -14 -5 -14 -3 2 6 10 7 21
8 25 3 7 -10 26 -11 35 -2 6 6 -11 9 -52 10 -14 1 -21 6 -20 16 4 20 -31 26
-52 10 -13 -11 -13 -10 -1 6 12 15 11 20 -8 37 -13 10 -30 16 -38 13 -12 -5
-14 -3 -8 8 5 8 -2 5 -16 -6 -13 -11 -19 -13 -13 -5 13 17 15 52 2 44 -4 -3
-21 4 -37 16 -21 14 -32 17 -37 9 -5 -8 -3 -9 6 -4 9 6 11 4 5 -5 -5 -8 -4
-11 1 -7 6 3 16 1 24 -4 11 -7 10 -8 -8 -6 -34 5 -48 23 -32 42 16 19 4 20
-15 1 -8 -7 -11 -17 -7 -21 4 -4 -3 -2 -15 6 -13 7 -25 20 -28 28 -4 11 -1 10
14 -3 10 -10 22 -13 25 -8 3 5 -3 12 -14 15 -14 4 -18 11 -14 24 5 15 4 15 -5
3 -8 -12 -13 -12 -23 -2 -6 6 -16 12 -22 12 -5 0 -1 -7 10 -16 17 -14 16 -14
-8 0 -16 9 -28 13 -28 8 0 -5 -7 -9 -15 -9 -22 0 -3 17 25 22 37 7 35 15 -4
12 -19 -2 -41 1 -48 6 -10 6 -9 8 3 4 9 -3 16 1 16 8 0 7 -8 10 -19 7 -10 -2
-18 -8 -18 -13 0 -5 -4 -9 -10 -9 -18 0 -10 17 13 28 19 9 16 10 -20 7 -41 -4
-56 6 -31 21 6 4 8 3 5 -3 -3 -5 0 -10 8 -10 8 0 15 4 15 9 0 8 -15 12 -39 9
-8 -2 -10 2 -5 11 5 9 2 8 -11 -2 -17 -14 -18 -13 -11 5 5 15 4 17 -4 9 -13
-13 -50 -7 -50 7 0 11 23 7 32 -6 4 -6 8 -2 8 7 0 21 -36 19 -52 -3 -8 -11 -9
-11 -4 3 7 23 -22 51 -45 45 -11 -3 -22 0 -26 5 -3 6 -1 8 5 4 6 -3 14 -1 18
6 4 7 3 10 -1 5 -5 -4 -17 1 -28 10 -11 10 -17 12 -13 6 10 -17 -2 -16 -19 1
-8 7 -11 17 -7 21 4 5 1 5 -6 1 -7 -4 -10 -11 -7 -16 3 -5 1 -12 -5 -15 -6 -4
-10 -3 -9 2 3 18 -1 33 -10 33 -5 0 -7 -10 -5 -22 4 -21 4 -21 -5 -3 -4 11 -5
25 -1 30 5 6 -3 11 -21 12 -17 1 -29 -3 -29 -10 0 -7 -5 -4 -11 6 -6 9 -15 14
-21 11 -7 -4 -8 -2 -4 4 4 7 2 12 -3 12 -6 0 -11 5 -11 11 0 5 5 7 12 3 7 -5
8 -3 3 5 -5 9 -12 7 -26 -8 -20 -21 -35 -28 -25 -12 3 5 -1 14 -10 21 -9 8
-11 16 -5 19 6 4 1 12 -10 20 -12 7 -18 8 -14 2 7 -12 -8 -15 -19 -4 -3 4 -13
8 -22 9 -10 2 -13 -4 -10 -19 3 -14 1 -12 -6 5 -10 24 -16 27 -47 23 -26 -3
-30 -2 -16 4 11 5 23 7 26 5 3 -2 6 3 6 10 0 7 -10 11 -21 10 -12 -1 -21 -3
-21 -4 0 -7 -36 -6 -41 1 -3 6 -12 5 -22 -3 -9 -7 -13 -8 -10 -3 4 6 -1 20
-10 30 -22 26 -68 64 -59 49 4 -7 0 -15 -9 -18 -21 -8 -24 -8 -24 5 0 5 4 8 8
5 5 -3 9 1 9 9 0 20 -13 19 -22 -2 -5 -15 -10 -13 -36 16 -23 27 -32 31 -43
22 -11 -9 -16 -9 -22 0 -5 8 -3 9 7 4 12 -8 12 -6 0 8 -12 15 -31 15 -31 1 0
-3 5 -2 12 2 6 4 8 3 5 -4 -8 -12 -32 -10 -44 3 -4 4 -2 5 5 1 22 -13 13 9
-10 23 -21 13 -22 13 -9 -2 8 -10 9 -17 3 -17 -6 0 -17 8 -24 18 -7 10 -23 18
-35 18 -17 0 -19 -3 -11 -13 8 -10 7 -12 -6 -7 -9 3 -16 10 -16 16 0 5 -6 6
-12 2 -10 -6 -10 -4 0 8 10 13 10 18 1 24 -7 4 -9 3 -5 -4 3 -6 -3 -13 -13
-17 -14 -4 -18 -12 -14 -23 3 -9 3 -14 -1 -10 -7 5 -13 26 -15 51 -1 4 -8 7
-17 7 -9 0 -12 5 -8 12 4 7 3 8 -5 4 -6 -4 -9 -12 -6 -17 3 -5 -1 -6 -9 -3 -9
3 -13 11 -9 18 3 6 2 8 -2 3 -5 -4 -17 1 -28 10 -11 10 -17 13 -14 7 4 -7 -3
-14 -18 -16 -20 -4 -23 -3 -14 8 16 19 4 18 -15 -2 -9 -9 -16 -11 -16 -4 0 6
-4 9 -9 5 -5 -3 -13 0 -17 6 -4 7 -3 9 3 6 5 -3 10 0 10 8 0 8 -4 12 -9 9 -5
-3 -17 0 -26 8 -9 8 -24 14 -32 13 -8 -1 -22 2 -31 6 -10 5 -31 1 -53 -11 -21
-10 -32 -13 -27 -6 8 10 4 16 -15 24 -14 7 -23 16 -19 21 3 5 1 12 -3 15 -5 3
-9 -4 -8 -15 0 -11 7 -23 14 -28 11 -7 11 -9 -2 -14 -9 -4 -15 -1 -13 6 1 7
-4 11 -11 9 -8 -1 -11 2 -7 8 3 5 2 10 -4 10 -5 0 -12 -6 -14 -12 -4 -10 -6
-10 -6 -1 -1 6 4 15 9 18 6 3 10 12 10 18 0 9 -3 8 -8 -1 -12 -18 -52 -24 -52
-7 0 8 -7 11 -21 8 -12 -3 -24 0 -28 6 -4 7 -18 13 -29 14 -12 1 -22 5 -22 9
0 4 -4 8 -10 8 -5 0 -10 -6 -10 -14 0 -9 7 -13 20 -11 11 2 20 0 20 -6 0 -9
-23 -7 -53 6 -15 6 -16 10 -5 17 10 7 10 9 -2 7 -29 -3 -41 1 -35 11 10 17 -2
11 -16 -7 -7 -10 -9 -15 -5 -11 11 9 36 -10 36 -26 0 -6 -5 -3 -10 6 -6 10
-19 15 -32 13 -16 -4 -19 -2 -10 7 16 16 15 25 -3 25 -8 0 -12 -4 -9 -8 2 -4
-5 -7 -16 -6 -22 1 -26 12 -7 21 6 3 2 3 -10 0 -15 -3 -23 -1 -23 7 0 7 -7 5
-16 -7 -8 -10 -13 -13 -9 -7 4 8 1 11 -9 7 -9 -3 -23 1 -31 10 -19 18 -31 20
-40 6 -3 -5 0 -7 8 -4 8 3 17 -2 20 -10 7 -17 -14 -12 -48 11 -27 18 -40 16
-24 -4 12 -16 12 -17 -2 -6 -12 10 -18 10 -29 0 -11 -9 -10 -7 0 7 14 18 13
19 -2 13 -12 -4 -18 -2 -18 8 0 18 -12 19 -27 4 -13 -13 -113 -20 -113 -8 0 4
5 11 10 14 6 3 10 1 10 -5 0 -6 5 -8 10 -5 6 3 10 11 10 16 0 6 -4 8 -9 5 -5
-4 -12 0 -14 6 -4 10 -6 9 -6 -1 -1 -11 -4 -11 -18 0 -15 12 -16 12 -11 -3 4
-9 1 -24 -7 -34 -12 -16 -12 -16 -10 9 2 15 -1 27 -6 27 -5 0 -9 -5 -9 -11 0
-5 -4 -7 -10 -4 -5 3 -10 1 -10 -6 0 -7 -3 -9 -6 -6 -4 4 -1 13 6 22 7 9 10
18 6 22 -3 3 -6 1 -6 -6 0 -8 -8 -11 -19 -8 -10 2 -27 0 -37 -6 -17 -10 -18
-9 -5 7 13 16 12 17 -14 10 -22 -5 -26 -4 -20 6 5 9 4 11 -4 6 -6 -4 -9 -11
-7 -15 3 -4 -1 -8 -9 -8 -8 0 -12 3 -10 6 2 4 -8 11 -21 18 -17 8 -26 8 -31 1
-4 -7 -1 -8 8 -3 8 5 11 5 7 0 -4 -4 -21 -9 -38 -10 -24 -2 -30 1 -31 19 -1
17 -2 17 -6 4 -4 -16 -6 -16 -19 -3 -8 8 -21 12 -29 9 -8 -3 -20 -2 -27 2 -17
11 -48 13 -42 2 3 -4 0 -8 -6 -8 -6 0 -9 -4 -6 -8 3 -5 -1 -9 -9 -9 -8 0 -12
4 -9 9 9 14 -9 9 -30 -9 -20 -17 -20 -17 -6 1 14 18 13 18 -10 13 -14 -4 -19
-4 -12 -1 19 9 14 23 -7 21 -11 0 -18 -4 -15 -8 2 -4 -3 -10 -12 -13 -8 -3
-12 -2 -9 4 3 6 1 11 -4 11 -21 3 -26 4 -38 12 -6 4 -14 3 -18 -3z m40 -12 c5
4 5 2 1 -5 -4 -7 -13 -10 -22 -6 -8 3 -21 -3 -30 -13 -10 -14 -14 -15 -12 -4
4 22 31 40 44 29 6 -5 15 -5 19 -1z m196 -15 c13 -16 12 -17 -3 -4 -10 7 -18
15 -18 17 0 8 8 3 21 -13z m-26 -3 c3 -5 1 -10 -4 -10 -6 0 -11 5 -11 10 0 6
2 10 4 10 3 0 8 -4 11 -10z m71 -2 c4 -7 3 -8 -4 -4 -7 4 -12 2 -12 -5 0 -7
-3 -10 -6 -6 -6 5 3 27 11 27 2 0 7 -5 11 -12z m-575 -15 c13 -17 13 -17 -5
-3 -18 14 -19 13 -12 -5 5 -15 4 -17 -5 -8 -6 6 -8 16 -5 22 9 14 11 14 27 -6z
m-108 -6 c3 -7 -3 -13 -14 -13 -13 0 -15 3 -7 13 6 7 12 13 13 13 2 0 5 -6 8
-13z m801 -17 c-6 -6 -10 -3 -10 10 0 13 4 16 10 10 7 -7 7 -13 0 -20z m-852
-2 c-7 -7 -12 -8 -12 -2 0 14 12 26 19 19 2 -3 -1 -11 -7 -17z m-129 -13 c-3
-9 -8 -14 -10 -11 -3 3 -2 9 2 15 9 16 15 13 8 -4z m-93 -3 c0 -4 -14 -13 -31
-19 -21 -8 -28 -16 -23 -25 4 -7 3 -9 -1 -5 -11 9 -16 39 -6 33 3 -2 17 2 31
10 30 16 30 16 30 6z m61 -15 c-10 -9 -11 -8 -5 6 3 10 9 15 12 12 3 -3 0 -11
-7 -18z m1369 -9 c0 -9 -28 -4 -37 7 -4 4 -2 5 5 1 8 -5 12 -1 12 11 0 15 2
16 10 3 5 -8 10 -18 10 -22z m-1285 13 c3 -5 2 -12 -3 -15 -5 -3 -9 1 -9 9 0
17 3 19 12 6z m1361 -36 c-1 -8 -5 -17 -8 -21 -5 -4 -4 16 1 34 3 9 9 -1 7
-13z m134 -5 c6 -11 8 -20 6 -20 -3 0 -10 9 -16 20 -6 11 -8 20 -6 20 3 0 10
-9 16 -20z m-1869 -13 c-10 -9 -11 -8 -5 6 3 10 9 15 12 12 3 -3 0 -11 -7 -18z
m-91 3 c0 -5 -5 -10 -11 -10 -5 0 -7 5 -4 10 3 6 8 10 11 10 2 0 4 -4 4 -10z
m37 -12 c-3 -8 -6 -5 -6 6 -1 11 2 17 5 13 3 -3 4 -12 1 -19z m117 14 c2 -4
-4 -8 -14 -8 -10 0 -16 4 -14 8 3 4 9 8 14 8 5 0 11 -4 14 -8z m2013 -44 c-3
-8 -6 -5 -6 6 -1 11 2 17 5 13 3 -3 4 -12 1 -19z m-2427 -13 c10 -12 8 -14 -9
-10 -12 2 -21 -1 -21 -7 0 -6 -3 -8 -6 -5 -4 4 -1 13 6 22 15 18 15 18 30 0z
m85 5 c3 -5 1 -10 -4 -10 -6 0 -11 5 -11 10 0 6 2 10 4 10 3 0 8 -4 11 -10z
m-135 -16 c0 -8 -19 -13 -24 -6 -3 5 1 9 9 9 8 0 15 -2 15 -3z m2780 -19 c8 1
20 -3 27 -10 9 -10 8 -14 -7 -18 -11 -3 -19 -2 -18 2 2 19 -4 22 -19 10 -14
-12 -16 -12 -8 0 6 11 4 13 -8 8 -9 -3 -19 -2 -21 2 -9 14 6 21 23 12 9 -5 23
-7 31 -6z m-2860 -1 c0 -8 -19 -13 -24 -6 -3 5 1 9 9 9 8 0 15 -2 15 -3z
m2796 -16 c4 -7 4 -10 -1 -6 -4 4 -15 2 -24 -5 -14 -11 -14 -10 -2 6 16 20 18
21 27 5z m-2869 -12 c0 -8 -6 -12 -15 -9 -11 5 -11 7 0 14 7 5 13 9 14 9 0 0
1 -6 1 -14z m-119 -34 c-10 -2 -18 -8 -18 -14 0 -6 -2 -9 -5 -6 -12 12 7 37
23 30 16 -6 15 -7 0 -10z m96 10 c3 -5 -1 -9 -9 -9 -8 0 -12 4 -9 9 3 4 7 8 9
8 2 0 6 -4 9 -8z m3122 -18 c2 -12 -1 -13 -12 -3 -7 6 -11 16 -8 21 7 11 17 3
20 -18z m57 -25 c-8 -8 -13 -7 -18 2 -5 8 -4 10 3 5 7 -4 12 -2 12 5 0 7 3 9
7 6 4 -4 2 -12 -4 -18z m-3409 -19 c-6 -6 -10 -3 -10 10 0 13 4 16 10 10 7 -7
7 -13 0 -20z m73 24 c-3 -3 -12 -4 -19 -1 -8 3 -5 6 6 6 11 1 17 -2 13 -5z
m3468 -24 c3 -5 1 -10 -4 -10 -6 0 -11 5 -11 10 0 6 2 10 4 10 3 0 8 -4 11
-10z m30 -38 c-3 -3 -11 0 -18 7 -9 10 -8 11 6 5 10 -3 15 -9 12 -12z m115
-17 c7 -9 8 -15 2 -15 -5 0 -12 7 -16 15 -3 8 -4 15 -2 15 2 0 9 -7 16 -15z
m-46 -4 c3 -4 -4 -7 -14 -6 -27 2 -33 10 -10 12 11 1 22 -2 24 -6z m161 -41
c3 -5 1 -10 -4 -10 -6 0 -11 5 -11 10 0 6 2 10 4 10 3 0 8 -4 11 -10z m230
-99 c3 -5 2 -12 -3 -15 -5 -3 -9 1 -9 9 0 17 3 19 12 6z m31 -21 c0 -12 -4
-16 -9 -11 -5 5 -6 14 -3 20 10 15 12 14 12 -9z m144 -70 c0 -5 -5 -10 -11
-10 -5 0 -7 5 -4 10 3 6 8 10 11 10 2 0 4 -4 4 -10z m-4960 -50 c0 -5 -5 -10
-11 -10 -5 0 -7 5 -4 10 3 6 8 10 11 10 2 0 4 -4 4 -10z m5060 -15 c11 -13 10
-14 -4 -9 -9 3 -16 10 -16 15 0 13 6 11 20 -6z m65 -15 c3 -6 -1 -7 -9 -4 -18
7 -21 14 -7 14 6 0 13 -4 16 -10z m-7 -35 c-3 -3 -9 2 -12 12 -6 14 -5 15 5 6
7 -7 10 -15 7 -18z m-5273 5 c3 -5 1 -10 -4 -10 -6 0 -11 5 -11 10 0 6 2 10 4
10 3 0 8 -4 11 -10z m29 -26 c3 -8 2 -12 -4 -9 -6 3 -10 10 -10 16 0 14 7 11
14 -7z m-51 -15 c-8 -8 -13 -7 -18 2 -5 8 -4 10 3 5 7 -4 12 -2 12 5 0 7 3 9
7 6 4 -4 2 -12 -4 -18z m-143 -73 c0 -3 -4 -8 -10 -11 -5 -3 -10 -1 -10 4 0 6
5 11 10 11 6 0 10 -2 10 -4z m5721 -43 c13 -16 12 -17 -3 -4 -10 7 -18 15 -18
17 0 8 8 3 21 -13z m-5841 -3 c0 -5 -5 -10 -11 -10 -5 0 -7 5 -4 10 3 6 8 10
11 10 2 0 4 -4 4 -10z m-43 -65 c0 -8 -4 -12 -9 -9 -5 3 -6 10 -3 15 9 13 12
11 12 -6z m6045 1 c7 4 8 2 4 -5 -9 -13 -26 -5 -25 12 0 9 2 8 6 -1 2 -6 10
-9 15 -6z m78 -57 c0 -4 -9 -7 -19 -6 -14 1 -17 5 -11 13 6 6 6 15 2 20 -4 4
1 2 11 -5 9 -7 17 -17 17 -22z m33 -34 c-3 -9 -8 -14 -10 -11 -3 3 -2 9 2 15
9 16 15 13 8 -4z m207 -125 c9 -16 8 -18 -5 -14 -8 4 -15 12 -15 20 0 20 7 17
20 -6z m-6725 -20 c3 -5 1 -10 -4 -10 -6 0 -11 5 -11 10 0 6 2 10 4 10 3 0 8
-4 11 -10z m6872 -106 c-3 -3 -12 -4 -19 -1 -8 3 -5 6 6 6 11 1 17 -2 13 -5z
m-7097 -68 c0 -3 -4 -8 -10 -11 -5 -3 -10 -1 -10 4 0 6 5 11 10 11 6 0 10 -2
10 -4z m7190 0 c0 -3 -4 -8 -10 -11 -5 -3 -10 -1 -10 4 0 6 5 11 10 11 6 0 10
-2 10 -4z m-7243 -31 c0 -8 -4 -12 -9 -9 -4 3 -8 0 -8 -7 0 -7 -3 -9 -6 -6 -4
4 -1 13 6 22 15 19 17 19 17 0z m7318 -25 c16 -17 16 -20 3 -15 -9 4 -19 13
-22 21 -7 19 -2 18 19 -6z m43 -75 c-3 -3 -9 2 -12 12 -6 14 -5 15 5 6 7 -7
10 -15 7 -18z m-7528 -69 c0 -2 -7 -7 -16 -10 -8 -3 -12 -2 -9 4 6 10 25 14
25 6z m7624 -12 c3 -8 2 -12 -4 -9 -6 3 -10 10 -10 16 0 14 7 11 14 -7z m61
-54 c3 -5 1 -10 -4 -10 -6 0 -11 5 -11 10 0 6 2 10 4 10 3 0 8 -4 11 -10z m80
-51 c4 -6 13 -8 20 -5 8 3 12 -2 11 -12 -2 -9 -9 -18 -17 -20 -11 -3 -11 -1 1
7 13 10 13 11 0 12 -8 1 -19 1 -23 0 -5 -1 -5 4 -1 10 5 9 2 10 -10 6 -10 -4
-15 -3 -11 3 8 13 22 13 30 -1z m-7970 -49 c-3 -5 -12 -10 -18 -10 -7 0 -6 4
3 10 19 12 23 12 15 0z m8030 1 c-9 -8 -36 -10 -30 -2 2 4 11 8 20 8 8 0 13
-3 10 -6z m42 -76 c0 -8 -4 -12 -9 -9 -5 3 -6 10 -3 15 9 13 12 11 12 -6z m98
-104 c3 -5 2 -12 -3 -15 -5 -3 -9 1 -9 9 0 17 3 19 12 6z m-8351 -19 c3 -5 -1
-9 -9 -9 -8 0 -15 4 -15 9 0 4 4 8 9 8 6 0 12 -4 15 -8z m-29 -22 c3 -5 1 -10
-4 -10 -6 0 -11 5 -11 10 0 6 2 10 4 10 3 0 8 -4 11 -10z m-10 -40 c-3 -5 -12
-10 -18 -10 -7 0 -6 4 3 10 19 12 23 12 15 0z m-77 -51 c-10 -5 -15 -17 -12
-27 5 -14 3 -14 -6 2 -10 15 -9 20 1 27 8 5 19 9 24 9 6 -1 2 -5 -7 -11z
m8628 -1 c4 -7 3 -8 -4 -4 -7 4 -12 0 -12 -10 0 -10 -3 -15 -6 -11 -7 6 2 37
10 37 3 0 8 -5 12 -12z m122 -162 c-7 -8 -15 -12 -17 -11 -5 6 10 25 20 25 5
0 4 -6 -3 -14z m-8921 -41 c0 -8 -4 -15 -9 -15 -10 0 -11 14 -1 23 9 10 10 9
10 -8z m-29 -21 c0 -17 -3 -22 -8 -13 -5 6 -6 18 -3 26 8 19 11 16 11 -13z
m8967 8 c-3 -3 -11 0 -18 7 -9 10 -8 11 6 5 10 -3 15 -9 12 -12z m45 3 c0 -2
-6 -5 -13 -8 -8 -3 -14 1 -14 8 0 7 6 11 14 8 7 -3 13 -6 13 -8z m-9039 -72
c13 -16 12 -17 -3 -4 -17 13 -22 21 -14 21 2 0 10 -8 17 -17z m9095 -16 c19
-17 24 -26 15 -31 -7 -5 -10 -2 -9 6 2 7 -3 12 -10 10 -8 -1 -11 2 -6 9 5 9 2
10 -10 6 -11 -5 -15 -3 -10 5 5 8 2 9 -10 5 -10 -4 -15 -3 -11 3 9 15 21 12
51 -13z m-9185 -74 c10 -11 10 -14 2 -9 -8 4 -13 2 -13 -6 0 -10 -3 -9 -9 2
-6 8 -7 18 -5 22 7 11 10 10 25 -9z m-37 -71 c2 -4 -5 -9 -17 -9 -17 -2 -19 0
-7 7 18 12 18 12 24 2z m-14 -42 c0 -5 -5 -10 -11 -10 -5 0 -7 5 -4 10 3 6 8
10 11 10 2 0 4 -4 4 -10z m9396 -3 c4 -4 -2 -7 -14 -7 -12 0 -22 4 -22 9 0 10
26 9 36 -2z m9 -25 c14 -10 17 -32 5 -32 -5 0 -10 6 -10 14 0 8 -6 17 -12 19
-7 3 -8 6 -3 6 6 0 15 -3 20 -7z m-9468 -22 c-1 -11 -5 -20 -9 -20 -3 0 -6 9
-5 20 1 11 5 20 9 20 3 0 6 -9 5 -20z m9498 -30 c3 -5 1 -10 -4 -10 -6 0 -11
5 -11 10 0 6 2 10 4 10 3 0 8 -4 11 -10z m-9525 -42 c0 -5 -9 -4 -20 2 -11 6
-20 12 -20 14 0 2 9 2 20 -1 11 -3 20 -9 20 -15z m-15 -17 c3 -5 2 -12 -3 -15
-5 -3 -9 1 -9 9 0 17 3 19 12 6z m50 -73 c5 4 5 1 0 -7 -7 -12 -10 -11 -20 2
-7 9 -16 13 -20 9 -5 -4 -5 -1 0 7 7 12 10 11 20 -2 7 -9 16 -13 20 -9z m9472
5 c0 -8 -4 -10 -12 -3 -7 5 -16 6 -20 2 -5 -4 -5 -2 -2 4 9 15 34 13 34 -3z
m-67 -67 c0 -2 -8 -10 -17 -17 -16 -13 -17 -12 -4 4 13 16 21 21 21 13z m-46
-44 c3 -5 -1 -9 -9 -9 -8 0 -12 4 -9 9 3 4 7 8 9 8 2 0 6 -4 9 -8z m2 -54 c4
-6 3 -8 -4 -4 -6 3 -13 2 -17 -4 -3 -5 -12 -10 -18 -10 -7 0 -3 7 7 15 24 18
23 18 32 3z m-9258 -33 c-3 -3 -9 2 -12 12 -6 14 -5 15 5 6 7 -7 10 -15 7 -18z
m9202 5 c0 -5 -5 -10 -11 -10 -5 0 -7 5 -4 10 3 6 8 10 11 10 2 0 4 -4 4 -10z
m-9095 -79 c3 -5 2 -12 -3 -15 -5 -3 -9 1 -9 9 0 17 3 19 12 6z m8905 -157 c0
-8 -19 -13 -24 -6 -3 5 1 9 9 9 8 0 15 -2 15 -3z m-49 -47 c-10 -9 -11 -8 -5
6 3 10 9 15 12 12 3 -3 0 -11 -7 -18z m-49 -89 c-9 -9 -15 -9 -24 1 -11 10
-10 11 5 6 10 -5 17 -2 17 6 0 7 3 9 7 6 4 -4 1 -13 -5 -19z m-192 -204 c0 -8
-19 -13 -24 -6 -3 5 1 9 9 9 8 0 15 -2 15 -3z m-75 -41 c-2 -10 -4 -20 -5 -23
-1 -3 -2 -8 -2 -12 1 -3 -5 -12 -13 -18 -11 -9 -15 -9 -15 -1 0 6 5 11 10 11
6 0 9 3 9 8 -1 4 0 10 1 15 1 4 4 12 5 17 1 6 3 12 4 15 3 14 9 3 6 -12z
m-7935 -164 c0 -8 4 -8 14 0 11 9 16 9 22 0 4 -8 3 -9 -4 -5 -7 4 -12 1 -12
-9 0 -9 5 -13 10 -10 6 3 10 4 10 1 0 -16 -20 -12 -40 9 -13 14 -18 25 -12 25
7 0 12 -5 12 -11z m7750 -19 c0 -5 -5 -10 -11 -10 -5 0 -7 5 -4 10 3 6 8 10
11 10 2 0 4 -4 4 -10z m-7632 -67 c-2 -10 3 -17 10 -15 6 1 11 -1 11 -5 -3
-20 2 -26 11 -13 7 11 10 11 10 2 0 -8 5 -10 13 -6 8 5 7 2 -2 -9 -13 -17 -16
-16 -42 9 -15 14 -25 33 -22 40 7 20 14 17 11 -3z m7572 -13 c8 -5 11 -10 5
-10 -5 0 -17 5 -25 10 -8 5 -10 10 -5 10 6 0 17 -5 25 -10z m-230 -180 c0 -5
-8 -10 -17 -10 -15 0 -16 2 -3 10 19 12 20 12 20 0z m-7080 -20 c0 -5 -7 -7
-15 -4 -8 4 -15 8 -15 10 0 2 7 4 15 4 8 0 15 -4 15 -10z m54 -41 c-2 -4 0
-10 6 -14 6 -4 7 -11 4 -17 -5 -8 -1 -9 10 -5 10 4 15 3 11 -3 -3 -6 -1 -10 4
-10 6 0 11 -5 11 -11 0 -6 -14 -1 -30 11 -17 12 -27 26 -23 32 4 7 0 9 -10 5
-10 -4 -14 -2 -11 7 3 7 11 13 19 13 8 0 12 -4 9 -8z m126 -93 c0 -2 -7 -7
-16 -10 -8 -3 -12 -2 -9 4 6 10 25 14 25 6z m6715 -8 c5 4 5 1 1 -6 -5 -8 -13
-9 -25 -2 -10 5 -22 6 -26 2 -5 -4 -5 -1 -1 6 5 8 13 9 25 2 10 -5 22 -6 26
-2z m-82 -13 c-3 -9 -8 -14 -10 -11 -3 3 -2 9 2 15 9 16 15 13 8 -4z m-6577
-21 c1 -9 0 -13 -4 -10 -3 4 -7 14 -8 22 -1 9 0 13 4 10 3 -4 7 -14 8 -22z
m6529 -24 c-3 -5 -12 -10 -18 -10 -7 0 -6 4 3 10 19 12 23 12 15 0z m-18 -35
c0 -8 -4 -12 -9 -9 -5 3 -6 10 -3 15 9 13 12 11 12 -6z m-6384 -32 c-5 -12 -3
-14 8 -8 12 8 12 6 0 -8 -10 -13 -17 -15 -27 -6 -8 6 -14 17 -14 23 0 7 4 6 9
-2 7 -11 9 -11 14 2 4 9 9 16 11 16 3 0 2 -7 -1 -17z m6306 -17 c9 -11 9 -16
-1 -22 -7 -4 -10 -4 -6 1 4 4 3 14 -3 22 -6 7 -9 13 -6 13 2 0 10 -6 16 -14z
m-6262 -20 c-1 -6 4 -10 11 -8 14 2 16 -4 3 -12 -4 -3 -16 3 -25 13 -13 14
-14 18 -2 18 8 0 14 -5 13 -11z m6209 -11 c0 -14 -6 -27 -13 -29 -9 -4 -9 3
-1 25 12 36 16 37 14 4z m-86 -45 c0 -5 -5 -10 -11 -10 -5 0 -7 5 -4 10 3 6 8
10 11 10 2 0 4 -4 4 -10z m-170 -113 c0 -7 -15 -20 -33 -30 l-32 -17 29 24
c18 15 26 28 21 36 -5 9 -4 11 3 6 7 -4 12 -13 12 -19z m-65 -27 c-3 -5 -14
-10 -23 -9 -14 0 -13 2 3 9 27 11 27 11 20 0z m-5541 -26 c3 -8 2 -12 -4 -9
-6 3 -10 10 -10 16 0 14 7 11 14 -7z m5501 6 c3 -5 1 -10 -4 -10 -6 0 -11 5
-11 10 0 6 2 10 4 10 3 0 8 -4 11 -10z m-112 -80 c3 6 5 6 3 -1 -3 -17 -33
-20 -33 -3 0 10 4 11 13 3 8 -7 14 -6 17 1z m-146 -45 c0 -8 -4 -12 -9 -9 -5
3 -6 10 -3 15 9 13 12 11 12 -6z m-4922 -15 c3 -5 1 -10 -4 -10 -6 0 -11 5
-11 10 0 6 2 10 4 10 3 0 8 -4 11 -10z m4884 -44 c-3 -3 -11 5 -18 17 -13 21
-12 21 5 5 10 -10 16 -20 13 -22z m-259 -96 c0 -5 -5 -10 -11 -10 -5 0 -7 5
-4 10 3 6 8 10 11 10 2 0 4 -4 4 -10z m50 6 c0 -2 -6 -9 -14 -15 -11 -9 -16
-9 -22 0 -4 7 -3 9 4 5 6 -3 13 -2 17 4 6 10 15 14 15 6z m-4323 -55 c0 -11
-7 -17 -14 -14 -9 4 -9 8 0 19 16 17 16 17 14 -5z m4181 -1 c-7 -10 -14 -17
-17 -15 -4 4 18 35 25 35 2 0 -1 -9 -8 -20z m-4154 -16 c3 -8 2 -12 -4 -9 -6
3 -10 10 -10 16 0 14 7 11 14 -7z m4019 -29 c-3 -9 -8 -14 -10 -11 -3 3 -2 9
2 15 9 16 15 13 8 -4z m-96 -30 c0 -8 -4 -12 -9 -9 -5 3 -6 10 -3 15 9 13 12
11 12 -6z m-3647 -11 c0 -8 -19 -13 -24 -6 -3 5 1 9 9 9 8 0 15 -2 15 -3z
m3590 -24 c0 -5 -2 -10 -4 -10 -3 0 -8 5 -11 10 -3 6 -1 10 4 10 6 0 11 -4 11
-10z m-3500 -34 c0 -3 -4 -8 -10 -11 -5 -3 -10 -1 -10 4 0 6 5 11 10 11 6 0
10 -2 10 -4z m3257 -40 c0 -8 -12 -19 -25 -26 l-25 -11 24 25 c13 14 24 26 25
26 0 0 1 -6 1 -14z m-83 -12 c3 -8 2 -12 -4 -9 -6 3 -10 10 -10 16 0 14 7 11
14 -7z m-31 -24 c10 -12 9 -12 -4 -2 -9 6 -18 9 -21 6 -3 -3 -9 -1 -12 4 -9
15 22 8 37 -8z m-193 -71 c-11 -20 -14 -20 -50 9 -3 3 5 1 17 -2 12 -4 24 -2
28 4 12 19 16 10 5 -11z m-80 -19 c0 -19 -18 -19 -23 -1 -3 14 -1 18 9 14 8
-3 14 -9 14 -13z m-2210 -37 c0 -2 -11 4 -25 13 -14 9 -25 20 -25 25 0 5 11
-1 25 -13 14 -12 25 -23 25 -25z m37 1 c-3 -3 -12 -4 -19 -1 -8 3 -5 6 6 6 11
1 17 -2 13 -5z m1838 -12 c-3 -3 -11 0 -18 7 -9 10 -8 11 6 5 10 -3 15 -9 12
-12z m-1622 -24 c-3 -17 -2 -19 5 -10 8 11 10 11 15 -1 3 -9 0 -14 -8 -13 -21
3 -28 13 -22 31 9 23 16 18 10 -7z m99 -30 c-8 -8 -9 -4 -5 13 4 13 8 18 11
10 2 -7 -1 -18 -6 -23z m42 23 c3 -5 -2 -15 -12 -22 -15 -12 -16 -12 -5 2 7 9
10 19 6 22 -3 4 -4 7 0 7 3 0 8 -4 11 -9z m1352 -3 c-10 -6 -22 -6 -26 -2 -5
5 3 10 18 11 22 1 24 0 8 -9z m-1226 -18 c0 -5 -8 -10 -17 -10 -15 0 -16 2 -3
10 19 12 20 12 20 0z m1093 -3 c3 -8 0 -14 -6 -14 -7 0 -21 -4 -31 -9 -14 -5
-17 -4 -12 4 4 7 14 12 22 12 8 0 14 5 14 10 0 14 7 12 13 -3z m27 3 c0 -5 -2
-10 -4 -10 -3 0 -8 5 -11 10 -3 6 -1 10 4 10 6 0 11 -4 11 -10z m-87 -15 c-3
-9 -8 -14 -10 -11 -3 3 -2 9 2 15 9 16 15 13 8 -4z m-877 -13 c0 -10 -5 -19
-12 -19 -6 0 -9 9 -6 19 2 10 7 18 11 18 4 0 7 -8 7 -18z m724 14 c0 -2 -7 -7
-16 -10 -8 -3 -12 -2 -9 4 6 10 25 14 25 6z m-474 -47 c3 -6 -5 -3 -20 6 -14
10 -26 19 -26 22 0 7 39 -17 46 -28z m24 17 c-7 -7 -13 -7 -20 0 -6 6 -3 10
10 10 13 0 16 -4 10 -10z m145 4 c3 -5 1 -10 -4 -10 -6 0 -11 5 -11 10 0 6 2
10 4 10 3 0 8 -4 11 -10z m-220 -10 c3 -5 1 -10 -4 -10 -6 0 -11 5 -11 10 0 6
2 10 4 10 3 0 8 -4 11 -10z m362 -12 c-3 -8 -6 -5 -6 6 -1 11 2 17 5 13 3 -3
4 -12 1 -19z m-167 4 c0 -5 -7 -9 -15 -9 -8 0 -12 4 -9 9 3 4 9 8 15 8 5 0 9
-4 9 -8z"/>
<path d="M5160 7691 c0 -7 -5 -9 -12 -5 -7 5 -8 3 -3 -5 5 -9 10 -10 18 -2 6
6 8 14 4 18 -4 3 -7 1 -7 -6z"/>
<path d="M5347 7666 c-4 -10 -1 -13 9 -9 15 6 19 23 5 23 -5 0 -11 -7 -14 -14z"/>
<path d="M5680 7615 c-9 -10 -9 -15 -1 -15 6 0 11 6 11 13 0 8 4 7 10 -3 6 -9
10 -10 10 -3 0 19 -17 24 -30 8z"/>
<path d="M4196 7587 c3 -10 9 -15 12 -12 3 3 0 11 -7 18 -10 9 -11 8 -5 -6z"/>
<path d="M6266 7508 c3 -5 10 -6 15 -3 13 9 11 12 -6 12 -8 0 -12 -4 -9 -9z"/>
<path d="M6390 7476 c7 -7 13 -7 20 0 6 6 3 10 -10 10 -13 0 -16 -4 -10 -10z"/>
<path d="M6580 7440 c-8 -5 -12 -12 -9 -15 4 -3 12 1 19 10 14 17 11 19 -10 5z"/>
<path d="M7025 7281 c-3 -5 -2 -12 3 -15 5 -3 9 1 9 9 0 17 -3 19 -12 6z"/>
<path d="M7153 7220 c2 -8 9 -16 15 -16 7 -1 13 -2 15 -4 1 -1 10 -3 19 -5 11
-2 15 2 11 12 -4 11 -8 12 -13 3 -6 -9 -11 -7 -19 6 -8 14 -11 15 -11 4 0 -13
-1 -13 -11 0 -9 13 -10 13 -6 0z"/>
<path d="M2886 7208 c5 -8 2 -9 -9 -5 -21 8 -22 3 -3 -12 10 -8 16 -8 25 3 9
11 8 15 -4 20 -11 4 -14 2 -9 -6z"/>
<path d="M2785 7160 c-3 -5 -12 -7 -20 -4 -8 4 -18 -1 -21 -10 -3 -9 -11 -13
-17 -9 -6 4 -7 1 -2 -7 6 -10 11 -9 21 4 7 10 17 15 23 12 5 -4 12 -2 16 4 4
6 11 8 16 5 5 -4 9 -1 9 4 0 14 -17 14 -25 1z"/>
<path d="M2670 7125 c0 -7 30 -13 34 -7 3 4 -4 9 -15 9 -10 1 -19 0 -19 -2z"/>
<path d="M7401 7121 c-8 -5 -9 -11 -3 -15 5 -3 12 1 16 9 6 17 6 18 -13 6z"/>
<path d="M7467 7085 c3 -8 9 -12 14 -9 12 7 11 11 -5 17 -10 4 -13 1 -9 -8z"/>
<path d="M2416 6984 c-3 -8 -11 -12 -17 -8 -8 4 -9 3 -5 -4 9 -15 36 -4 36 14
0 19 -6 18 -14 -2z"/>
<path d="M1960 6690 c-8 -5 -12 -12 -9 -15 4 -3 12 1 19 10 14 17 11 19 -10 5z"/>
<path d="M1814 6595 c-4 -8 -10 -13 -14 -10 -5 3 -11 1 -14 -4 -11 -16 11 -22
24 -6 7 8 16 12 21 9 5 -3 6 2 3 10 -8 20 -13 20 -20 1z"/>
<path d="M8325 6580 c-8 -13 9 -20 24 -11 10 6 9 10 -3 14 -8 3 -18 2 -21 -3z"/>
<path d="M8550 6420 c0 -5 5 -10 11 -10 5 0 7 5 4 10 -3 6 -8 10 -11 10 -2 0
-4 -4 -4 -10z"/>
<path d="M8600 6381 c0 -6 4 -13 10 -16 6 -3 7 1 4 9 -7 18 -14 21 -14 7z"/>
<path d="M1280 6181 c0 -7 -5 -9 -12 -5 -7 4 -8 3 -4 -4 4 -8 -3 -16 -18 -22
-30 -11 -35 -20 -7 -13 24 6 57 41 48 50 -4 3 -7 1 -7 -6z"/>
<path d="M8857 6163 c-4 -6 0 -13 8 -17 8 -3 17 0 21 6 4 6 3 8 -4 4 -5 -3
-12 -1 -14 6 -3 8 -6 9 -11 1z"/>
<path d="M886 5815 c5 -13 4 -16 -4 -11 -7 4 -12 2 -12 -3 0 -15 13 -14 31 2
8 6 12 11 10 10 -2 -2 -10 2 -18 9 -11 9 -12 7 -7 -7z"/>
<path d="M690 5585 c0 -8 2 -15 4 -15 2 0 6 7 10 15 3 8 1 15 -4 15 -6 0 -10
-7 -10 -15z"/>
<path d="M9529 5453 c-13 -16 -12 -17 4 -4 16 13 21 21 13 21 -2 0 -10 -8 -17
-17z"/>
<path d="M9691 5264 c0 -11 3 -14 6 -6 3 7 2 16 -1 19 -3 4 -6 -2 -5 -13z"/>
<path d="M365 5221 c-3 -5 -2 -12 3 -15 5 -3 9 1 9 9 0 17 -3 19 -12 6z"/>
<path d="M326 5138 c3 -5 10 -6 15 -3 13 9 11 12 -6 12 -8 0 -12 -4 -9 -9z"/>
<path d="M9839 5028 c-6 -27 -5 -39 4 -45 7 -3 9 -3 5 2 -4 4 -3 14 3 21 7 8
7 14 -1 19 -5 3 -10 5 -11 3z"/>
<path d="M261 4944 c0 -11 3 -14 6 -6 3 7 2 16 -1 19 -3 4 -6 -2 -5 -13z"/>
<path d="M466 4685 c-3 -8 0 -14 7 -12 7 1 11 -4 10 -10 -2 -7 4 -13 12 -13
14 0 13 3 -1 25 -19 29 -20 30 -28 10z"/>
<path d="M548 4563 c7 -3 16 -2 19 1 4 3 -2 6 -13 5 -11 0 -14 -3 -6 -6z"/>
<path d="M9487 4533 c-4 -6 0 -13 8 -17 8 -3 17 0 21 6 4 6 3 8 -4 4 -5 -3
-12 -1 -14 6 -3 8 -6 9 -11 1z"/>
<path d="M9473 4488 c-2 -18 0 -20 7 -8 12 18 13 30 2 30 -4 0 -9 -10 -9 -22z"/>
<path d="M890 4200 c0 -5 5 -10 10 -10 6 0 10 -6 10 -14 0 -8 7 -17 16 -20 11
-4 10 2 -6 24 -22 32 -30 37 -30 20z"/>
<path d="M1030 4048 c-12 -8 -12 -9 2 -5 9 3 19 1 22 -6 3 -9 5 -9 5 0 1 18
-13 23 -29 11z"/>
<path d="M8925 3928 c-14 -29 -14 -31 0 -14 8 11 15 24 15 29 0 4 5 5 12 1 7
-4 8 -3 4 4 -11 17 -14 15 -31 -20z"/>
<path d="M1200 3910 c-9 -6 -10 -10 -3 -10 6 0 15 5 18 10 8 12 4 12 -15 0z"/>
<path d="M8867 3889 c7 -7 15 -10 18 -7 3 3 -2 9 -12 12 -14 6 -15 5 -6 -5z"/>
<path d="M1327 3783 c4 -10 8 -11 13 -3 5 8 10 6 15 -7 5 -10 8 -21 7 -25 -1
-4 6 -4 15 -1 11 4 14 3 9 -5 -4 -7 -2 -12 3 -12 18 0 13 11 -16 38 -32 30
-54 37 -46 15z"/>
<path d="M8307 3436 c-4 -10 -1 -13 8 -9 8 3 12 9 9 14 -7 12 -11 11 -17 -5z"/>
<path d="M8230 3379 c0 -5 5 -7 10 -4 6 3 10 8 10 11 0 2 -4 4 -10 4 -5 0 -10
-5 -10 -11z"/>
<path d="M7967 3219 c7 -7 15 -10 18 -7 3 3 -2 9 -12 12 -14 6 -15 5 -6 -5z"/>
<path d="M7715 3077 c-12 -10 -15 -16 -6 -21 6 -4 14 0 17 8 3 9 11 13 17 9 6
-3 7 -1 3 5 -9 15 -8 15 -31 -1z"/>
<path d="M2576 2961 c-3 -5 1 -11 9 -14 9 -4 12 -1 8 9 -6 16 -10 17 -17 5z"/>
<path d="M7365 2900 c-4 -6 -10 -8 -13 -6 -4 2 -18 -4 -31 -13 -18 -14 -21
-20 -11 -26 9 -5 11 -4 6 3 -4 7 -2 13 3 13 12 2 26 5 39 9 4 1 10 2 13 2 3
-1 6 6 6 14 0 17 -4 18 -12 4z"/>
<path d="M2899 2838 c-6 -21 -5 -38 2 -38 5 0 9 9 9 20 0 16 -7 28 -11 18z"/>
<path d="M3075 2740 c3 -5 8 -10 11 -10 2 0 4 5 4 10 0 6 -5 10 -11 10 -5 0
-7 -4 -4 -10z"/>
<path d="M6796 2667 c-16 -12 -16 -14 -3 -14 9 0 18 6 21 14 3 7 4 13 3 13 -2
0 -11 -6 -21 -13z"/>
<path d="M3401 2624 c0 -11 3 -14 6 -6 3 7 2 16 -1 19 -3 4 -6 -2 -5 -13z"/>
<path d="M3428 2627 c7 -8 10 -16 7 -19 -3 -2 1 -5 9 -5 18 0 10 24 -11 31
-12 5 -13 4 -5 -7z"/>
<path d="M6666 2613 c-6 -14 -5 -15 5 -6 7 7 10 15 7 18 -3 3 -9 -2 -12 -12z"/>
<path d="M3543 2577 c-3 -6 -1 -7 5 -3 5 3 12 1 14 -6 3 -8 6 -7 10 3 7 17
-19 22 -29 6z"/>
<path d="M3615 2569 c-10 -15 3 -25 16 -12 7 7 7 13 1 17 -6 3 -14 1 -17 -5z"/>
<path d="M6034 2458 c-3 -4 -9 -6 -14 -3 -5 3 -11 1 -14 -4 -8 -13 14 -26 23
-14 3 5 16 9 29 9 12 0 21 4 20 9 -4 12 -37 14 -44 3z"/>
<path d="M5840 2427 c0 -9 4 -18 9 -21 5 -4 8 1 7 9 -3 21 -16 31 -16 12z"/>
<path d="M4211 2414 c0 -11 3 -14 6 -6 3 7 2 16 -1 19 -3 4 -6 -2 -5 -13z"/>
<path d="M5803 2413 c-20 -7 -15 -19 7 -20 11 -1 20 2 20 7 0 12 -13 18 -27
13z"/>
<path d="M4599 2353 c-13 -16 -12 -17 4 -4 9 7 17 15 17 17 0 8 -8 3 -21 -13z"/>
<path d="M5515 2359 c-4 -6 -4 -13 -1 -16 3 -4 6 -1 6 6 0 7 5 9 12 5 7 -4 8
-3 4 4 -9 15 -13 15 -21 1z"/>
</g>
</svg>
